<?xml version="1.0" encoding="utf-8"?>
<!-- Generator: Adobe Illustrator 25.4.1, SVG Export Plug-In . SVG Version: 6.00 Build 0)  -->
<svg version="1.0" id="Layer_1" xmlns="http://www.w3.org/2000/svg" xmlns:xlink="http://www.w3.org/1999/xlink" x="0px" y="0px"
	 viewBox="0 0 248 241.3" enable-background="new 0 0 248 241.3" xml:space="preserve">
<g>
	<path fill="#101820" d="M208.4,202.3c-2,0.1-1.4,1.3-1.4,1.3c1.1-0.4,2.4,0,2.4,0c1.8-0.2,0.1-1.2,0.1-1.2
		C209,202.3,208.7,202.3,208.4,202.3L208.4,202.3z M39.4,202.3c-0.3,0-0.6,0-1,0c0,0-1.7,1,0.1,1.2c0,0,1.3-0.4,2.3,0
		C40.9,203.6,41.5,202.4,39.4,202.3L39.4,202.3z M21,170.6c-0.7,0-0.9,0.4-0.9,0.4c3,1.5,8.6,8,8.6,8c1.1-0.4,0.8-2.3,0.8-2.3
		C24.6,171.5,22.2,170.6,21,170.6L21,170.6z M227,170.4c-1.2,0-3.6,0.9-8.5,6.1c0,0-0.3,1.9,0.8,2.3c0,0,5.6-6.6,8.6-8
		C227.9,170.8,227.7,170.4,227,170.4L227,170.4z M57,169.8c0,0.6,0,1.3,0.1,2c0.2,0,0.3,0,0.4,0c-0.4,0-0.8,0-1.2,0
		C56.7,171.2,56.9,170.5,57,169.8L57,169.8z M190.2,169.5c0.2,0.8,0.6,1.5,1.3,2.3c0.1,0.1,0.3,0.2,0.4,0.3c-0.6,0-1.2,0-1.7,0
		C190.2,171.2,190.3,170.3,190.2,169.5C190.2,169.6,190.2,169.6,190.2,169.5L190.2,169.5z M49.8,149.4c-0.1-0.1-0.3,0-0.7,0.4
		c0,0-2.5,0.1-5.5,11.2c0,0-0.7,4,0.2,4.1c0,0,1.2-0.2,1-3.5c0,0,1-1.9,1,2c0,0,1.5,0.8,1.5-1.5c0,0-0.9-8.2,1.8-11.1
		C49.1,151.2,50,149.6,49.8,149.4L49.8,149.4z M198.2,149.3c-0.2,0.2,0.7,1.7,0.7,1.7c2.7,2.9,1.8,11.1,1.8,11.1
		c0,2.2,1.5,1.5,1.5,1.5c0-3.9,1-2,1-2c-0.2,3.2,1,3.5,1,3.5c0.9-0.1,0.2-4.1,0.2-4.1c-3-11.1-5.5-11.2-5.5-11.2
		C198.5,149.3,198.3,149.2,198.2,149.3L198.2,149.3z M31.5,120.6c-0.2,0.4-0.3,0.8-0.4,1.2c-1,0.2-2.7,0.9-4.6,2.7
		c0,0,0.2-1.2,0.7-3.1C28.8,121.7,30.2,121.4,31.5,120.6L31.5,120.6z M216.5,120.5c1.3,0.7,2.7,1.1,4.3,0.8c0.5,1.9,0.7,3.1,0.7,3.1
		c-2-1.8-3.7-2.5-4.6-2.7C216.9,121.2,216.7,120.9,216.5,120.5L216.5,120.5z M46.6,104.7c11.2,62.6,64.6,96.8,74.8,102.8
		c-0.3-0.2-0.2-0.1-0.6-0.3c-3.4-0.1-6.8-0.5-10.4-1.1c-0.4-6-4-7.9-4-7.9c-1.6-0.1-2.5,0.7-3.1,1.8c-1.6-1.7-7.4-8.1-9.8-10.2
		c0,0-1.7-2-1.7-3.6c0,0-2.5-4.4-4-0.6c-1.7-2.9-7.6-12.5-9.2-8.3c0,0-0.8,3-0.4,6.4c0,0,0,1.2,0,2.7c-1-0.9-2.4-1.9-2.4-1.9
		c-5.7-3.2-4.1,0.1-4.1,0.1c0.6,1.8,0.3,3.8,0.1,4.8c0,0,0,0,0.1,0c-1.1-0.5-3-1-6-0.8c-0.4-0.1-1.3-0.4-1.5-1c0-0.1,0-0.2,0-0.2
		c0-0.4,0.3-0.9,0.8-1.5c0,0,0.5-0.6,2.2-0.3l0.1,0l0.1,0c0.1,0,2.4-0.3,3.2-2.1c0.7-1.5,0.2-3.6-1.6-6.1c-0.2-0.3-3.3-3.5-7.7-4.9
		c0.1,0,0.2,0,0.2,0.1c-0.1-0.6-0.1-1.1-0.1-1.6c0-0.8,0.1-1.4,0.2-1.7c0.4,0.1,0.9,0.2,1.4,0.2c2.9,0,5.3-2.4,5.3-5.3
		c0-2.9-2.4-5.3-5.3-5.3c-2.9,0-5.3,2.4-5.3,5.3c0,0.5,0.1,1,0.2,1.5c0,0,0,0,0,0c-0.4,0.3-0.9,1-1.1,2.7c0,0.2,0,0.3,0,0.5
		c0-1.4-0.3-2.5-0.3-2.6l0-0.1l-0.1-0.1c-1-1.8-2.6-2.6-4.2-2.8c0.1,0,0.2,0,0.2,0c0.1-4.5,0.6-22.9-0.9-21.5c0,0-2.1,0.7-4.6,3
		c-1.1-0.7-3.8-3.1-2.3-9.6c0,0-1.4-5.1-7.3,5.7c-1.1-2.2-3.8-6.9-6.2-6.7c0,0-1.1-0.9-0.8,2.2c0,0,0.8,6-1.4,7.6
		c-0.2-1.1-0.3-2.3-0.1-3.4c0,0-0.1-3.2-1.9-2.1c-0.3-1.8-0.5-4.4,0.6-6.6c1-2,2.8-3.4,5.4-4.2c0.9,0.7,2,1.1,3.2,1.1
		c3.1,0,5.6-2.5,5.6-5.6c0-3.1-2.5-5.6-5.6-5.6c-0.7,0-1.4,0.1-2.1,0.4c0.1-0.1,0.2-0.3,0.3-0.4c1.5-0.6,5.5-2.4,8.3-6.6
		c0,0,2-4.5,3.7-5.7l0,0C46.6,105,46.6,104.8,46.6,104.7L46.6,104.7z M201.1,104.5c0,0,0,0.1,0,0.1c0.2,0.2,0.3,0.3,0.3,0.3
		c1.7,1.2,3.7,5.7,3.7,5.7c2.8,4.2,6.8,6,8.3,6.6c0.1,0.1,0.2,0.3,0.3,0.4c-0.6-0.3-1.4-0.4-2.1-0.4c-0.6,0-1.2,0.1-1.7,0.3
		c-2.6,0.5-4.6,2.8-4.6,5.5c0,3.1,2.5,5.6,5.6,5.6c0.6,0,1.2-0.1,1.7-0.3c0.8-0.2,1.6-0.5,2.2-0.9c2.6,0.8,4.5,2.2,5.4,4.2
		c1.1,2.2,1,4.8,0.6,6.6c-1.9-1.1-1.9,2.1-1.9,2.1c0.2,1.1,0.2,2.3-0.1,3.4c-2.2-1.5-1.4-7.6-1.4-7.6c0.3-3.1-0.8-2.2-0.8-2.2
		c-2.4-0.3-5.1,4.5-6.2,6.7c-5.9-10.7-7.3-5.7-7.3-5.7c1.4,6.5-1.2,8.9-2.3,9.6c-2.5-2.3-4.6-3-4.6-3c-1.6-1.4-1,18-0.9,21.8
		c0,0,0.1,0,0.1,0c-1.2,0.2-2.5,0.8-3.7,1.8c-0.1,0.1-1.5,1.3-1.6,3.2c0,0.1,0,0.1,0,0.2c0,0.2,0,0.5,0.1,0.7c0-0.2-0.1-0.5-0.1-0.7
		c0-0.1,0-0.1,0-0.2c0-0.1,0-0.1,0-0.2c-0.1-1-0.4-1.8-0.9-2.3c0.2-0.6,0.3-1.1,0.3-1.8c0-2.9-2.4-5.3-5.3-5.3
		c-2.9,0-5.3,2.4-5.3,5.3c0,2.9,2.4,5.3,5.3,5.3c0.2,0,0.4,0,0.6,0l0,0.1c0.1,0,0.2,0.1,0.2,0.1c0.4,0.6,0.1,2.3-0.2,3.2l0.1,0
		c-3.5,1.1-5.2,3-5.3,3.1c-2,1.9-2.9,3.8-2.6,5.7c0.4,2.4,2.7,3.6,2.8,3.7l0.3,0.1l0.3-0.1c1-0.2,1.5,0.1,1.5,0.2
		c0.8,0.8,1.3,1.5,1.3,2c0,0.1,0,0.1,0,0.2c-0.1,0.6-1.1,1-1.7,1.2c-4-0.4-6.7,1.5-6.8,1.6c0,0-0.5,0.4-1.2,0.9l1.8-1.4
		c0,0-0.8-2.9,0-5.4c0,0,1.5-3.4-4.1-0.1c0,0-1.3,1-2.3,1.9c0-1.4,0-2.7,0-2.7c0.3-3.4-0.4-6.4-0.4-6.4c-1.5-4.2-7.3,5.4-9,8.3
		c-1.5-3.9-3.9,0.6-3.9,0.6c0,1.6-1.6,3.6-1.6,3.6c-2.4,2.1-8,8.4-9.6,10.2c-0.5-1.1-1.5-1.9-3-1.8c0,0-3.5,1.9-3.9,8.1
		c0.8-0.1,1.6-0.3,2.4-0.4c-0.8,0.2-1.6,0.3-2.4,0.4c-3.4,0.6-7,0.9-10.7,1c-0.4,0.2-0.3,0.2-0.6,0.3
		C136.3,201.5,189.9,167.3,201.1,104.5L201.1,104.5z M44.5,79.8v1.5c0,6.6,0.5,12.9,1.4,19c-1-0.1-2.4,0-4.4,0.2
		c0.8-1.8,1.4-3,1.4-3c3.6-6.9-2.2-4.3-2.2-4.3c-0.8,0.4-1.5,0.8-2.2,1.1c0.1-1.3,0.3-3.9-0.1-6.8c0,0-1.1-4.6,1.4-6.4
		c0.4,0.1,0.7,0.1,1.1,0.1C42.4,81.3,43.6,80.7,44.5,79.8L44.5,79.8z M203.1,79.5c0.9,1.1,2.3,1.9,3.9,1.9c0.5,0,0.9-0.1,1.3-0.2
		c2.4,1.9,1.3,6.3,1.3,6.3c-0.4,2.9-0.2,5.4-0.1,6.8c-0.7-0.4-1.4-0.8-2.2-1.1c0,0-5.8-2.5-2.2,4.3c0,0,0.6,1.3,1.4,3
		c-2.2-0.3-3.7-0.4-4.7-0.2c0,0,0,0,0,0.1c0.9-6.1,1.3-12.4,1.3-18.9L203.1,79.5L203.1,79.5z M211.5,78.2c3.8-0.3,7,5.4,8.4,8.1
		c-0.3,0.5-0.1,1.3-0.1,1.3c0.2,0.3,0.3,0.7,0.4,1.1c-2.9-4-8.3-6.9-10.7-8.1C210.4,80.1,211.1,79.3,211.5,78.2
		C211.5,78.3,211.5,78.2,211.5,78.2L211.5,78.2z M39.7,67c1.4,0.1,3,0.5,4.8,1.8V73c-0.9-0.9-2.2-1.5-3.6-1.5c-1.7,0-3.1,0.8-4,2.1
		c-1.3-0.1-3,0.3-3,0.3c0.6-2.1,2.4-4.8,3.7-6.6C38.2,67.1,38.9,67,39.7,67L39.7,67z M208.1,66.9c0.9,0,1.6,0.1,2.2,0.2
		c1.3,1.9,3.1,4.5,3.7,6.6c0,0-1.7-0.3-3-0.2c-0.9-1.3-2.4-2.1-4-2.1c-1.6,0-3,0.8-3.9,2v-4.4C204.9,67.5,206.7,66.9,208.1,66.9
		L208.1,66.9z M78.6,24.6c0.9,0,1.8,0.1,2.8,0.3l-0.2,0.9l0.1,0.4h-8.5C74,25.5,76,24.6,78.6,24.6L78.6,24.6z M164,23.7
		c2.4-0.1,4.3,1.5,5.2,2.4h-7.9c0.1-0.4,0.2-0.8,0.2-1.2l0-0.5C162.3,23.9,163.2,23.7,164,23.7L164,23.7z M87.5,21.9
		c1.7-0.1,4,0.6,6.5,3.4c0,0,0.2,0.3,0.7,0.7h-4.9l0.1-0.4C89.8,24,88.9,22.6,87.5,21.9L87.5,21.9z M155,19.3c1.3-0.1,2,0.7,2.3,1.2
		l-0.2,0c-2.4,0-4.4,2-4.4,4.4c0,0.4,0.1,0.8,0.2,1.2h-8.1c3.2-2.1,7.2-5.4,7.2-5.4C153.3,19.7,154.2,19.4,155,19.3L155,19.3z
		 M134.7,0c-1-0.1-1,1.5-1,2.2c-1,0.4-3.1,1-4.9-0.9c0,0-2.6-1.1-1.7,2.8c0,0,0.3,1.9,1.3,3.6c-3.9,0.1-7.7-0.8-7.7-0.8
		c-4.2-0.3,1.6,4.6,1.6,4.6c0.5,0.5,1.1,1.1,1.6,1.5c-2.3,0.4-7,1.4-3.3,2.6c0,0,5.6,1.7,7.6,5.6c0,0,3.9,3.4,7.2,2.3
		c0,0-1.1,0.5-1.1,2.5h-22.5c-0.1-0.9-0.6-2.3-2.3-2.9c0.7-0.2,1.4-0.5,2-0.8c0,0,6.7-1.3,8.8,1.1c0,0,2.9,1,1.3-2.2
		c0,0-2.9-4.6-8.4-5.7c1.2-0.8,2.8-2.4,2.8-2.4c2.9-3.1,0.2-3.5,0.2-3.5c-1.6,0.7-4.1-0.3-4.1-0.3c-6.6-4.1-12.8-2.6-12.8-2.6V5.9
		c-0.3-5.6-2.9-2.5-2.9-2.5c-0.3,1.8-2.6,2.1-2.6,2.1c-6.7,2-8.2,5.9-8.2,5.9c-1.1,2.9-3.7,3.9-3.7,3.9c-4.3,0.8-7,2.2-8.3,3
		c0.3-0.6,0.4-1.3,0.4-2c0-2.5-2.1-4.6-4.6-4.6c-2.5,0-4.6,2.1-4.6,4.6c0,1.8,1,3.3,2.5,4.1c-0.9,1.3-3.1,4.2-6,5.6h-2.6
		c0-1.7-0.2-6-2.4-7.3c0,0-0.8-0.2-1.6,1.7c0,0-2.9,4.1-5.2,5.7h-4h-1.2v1.2v5.1c-0.8,0.5-1.6,1.4-2.5,2.8c-1.2-1.5-2.3-2.4-2.3-2.4
		c-3.4-1.6-2.8,0.7-2.8,0.7c1.2,3-1,6.9-1,6.9c-2,2.1-2.8,5.3-3.1,8.2c-1.9-1.5-5.2-1.4-5.2-1.4c-6.6,1-2.5,3.2-2.5,3.2
		c2.7,1.8,2.8,5.7,2.8,5.7c0.6,4.4,3.8,5.6,4.9,5.9c-1.1,4.4-4.7,8.1-4.7,8.1c-0.4-1-1.5-2.1-2.1-2.7C25.7,65,23.5,63,20.8,63
		c-3,0-5.5,2.5-5.5,5.5c0,3,2.5,5.5,5.5,5.5c1,0,1.9-0.3,2.8-0.8c2.4,5.9-0.6,9.8-2,11.2c-0.6-1.1-1.4-1.9-2.2-2.1
		c-0.1-2.5-1.1-9.8-7.1-12.5c0,0-4.7-0.2-1,4.4c0,0,1.5,5.8-0.6,8.5c0,0-1.1,2-0.9,4c-0.5-0.3-1-0.5-1.5-0.7c0,0-1.9-0.2-0.6,3.7
		c0,0,0.7,6.7-0.2,9.7c0,0-0.1,2.2,0.4,5.3c-1.9-0.7-3.7-0.1-3.7-0.1c-5.8,1.2-3.9,3.9-3.9,3.9c3.7,1.9,5,5.8,5,5.8
		c3.1,8.4,9.1,9.1,10.9,9.1c0,2.7,0.3,5.7,1.1,8.3c0,0-1.6-1.3-4-1.6c-0.8-2-2.8-3.5-5.2-3.5c-3.1,0-5.6,2.5-5.6,5.6
		c0,3.1,2.5,5.6,5.6,5.6c1.8,0,3.4-0.8,4.4-2.1c1.3,0.5,5.8,2.5,7.1,8.6c-3.7-2.5-7.2-3-7.2-3c-5.1-1.2,0.7,7.7,0.7,7.7
		c0.2,0.4,0.3,0.9,0.4,1.4c-0.9,0.2-3.1,0.2-5.9-2.7c0,0-3-3.1-2.5,3.1c0,0-0.3,3.8,5.3,13.3c-0.7,0.1-1.4,0.1-2.2,0.2
		c0,0-4.9,3,0.3,3.6c0,0,7.3,2.5,9.5,9.6c0,0,4.1,5,7.6,6.1l-0.5,0.4l-0.1,0.1c0,0.1-4.2,7.9,4.6,14.1c0.2,0.1,1.8,1,3.9,1.3
		c0,0-0.1,0-0.1,0c-1.1,0.3-1.9,0.6-1.9,0.6c-5.6,3.6-0.7,4.9-0.7,4.9c1.7-0.1,5.3,1.8,5.3,1.8c3,3.1,4,1.6,4,1.6
		c-0.1-2.6-5.5-4.2-5.5-4.2c-3.7-0.7-3.1-1.2-3.1-1.2c4-3.1,9.8-2,9.8-2c3-1.3-0.1-2.3-0.1-2.3c-0.7-0.1-1.4-0.1-2.2-0.1
		c0,0,0,0-0.1,0c0.2-0.1,0.4-0.3,0.7-0.5l3.2-3.8c0.6,0.1,2.6,0.7,3.4,3.5l-3.7,4.3l-0.1,0.1c-0.1,0.1-1,2.2-1,4.7
		c0,1.2,0.2,2.6,0.8,3.9c1.3,2.8,4.1,4.8,8.3,5.9c0.1,0,4,1,8.1,4.8c0.7,0.5,64.7,46.2,134.3-2.9l0.1-0.1l0.1-0.1
		c0.1-0.1,1.6-1.8,5.7-1.9l0.1,0l0.1,0c0.2-0.1,4.7-1.5,6.5-5.6c0.5-1.1,0.7-2.2,0.7-3.5c0-1.7-0.5-3.6-1.4-5.6l0-0.1l-0.1-0.1
		c-0.2-0.2-1.9-2.3-4.2-4.9c0.5-0.9,1.5-2.2,3.5-2.5l2.5,3.2c0.5,0.4,1.1,0.9,1.8,1.3c-0.1,0-0.2-0.1-0.2-0.1c-0.7,0-1.3,0-1.8,0.1
		c0,0-3.2,1-0.1,2.3c0,0,5.9-1.1,9.9,2c0,0,0.6,0.6-3.2,1.2c0,0-5.4,1.7-5.5,4.2c0,0,1,1.6,4.1-1.6c0,0,3.6-1.9,5.3-1.8
		c0,0,5-1.3-0.7-4.9c0,0-0.7-0.2-1.8-0.5c0,0-0.1,0-0.1,0c1.3-0.3,2.7-1,4.1-2.3c0.1-0.1,4.6-3.6,5-8.3c0.2-1.9-0.4-3.7-1.6-5.4
		c3.6-0.8,8.1-6.3,8.1-6.3c2.2-7.2,9.5-9.6,9.5-9.6c5.3-0.6,0.3-3.6,0.3-3.6c-0.7-0.1-1.5-0.2-2.2-0.2c5.6-9.5,5.3-13.3,5.3-13.3
		c0.6-6.3-2.5-3.1-2.5-3.1c-2.8,3-5,2.9-5.9,2.7c0.1-0.5,0.3-0.9,0.4-1.4c0,0,5.8-8.9,0.7-7.7c0,0-3.5,0.4-7.2,3
		c1-5.3,4.5-7.5,6.3-8.3c1,1.2,2.6,2,4.3,2c0.5,0,1-0.1,1.5-0.2c2.7-0.3,4.9-2.7,4.9-5.5c0-3.1-2.5-5.6-5.6-5.6
		c-0.5,0-1,0.1-1.5,0.2c-2,0.3-3.7,1.6-4.5,3.4c-2,0.4-3.2,1.4-3.2,1.4c0.8-2.6,1.1-5.6,1.1-8.3c1.8,0,7.8-0.7,10.9-9.1
		c0,0,1.3-3.9,5-5.8c0,0,1.9-2.7-3.9-3.9c0,0-1.8-0.5-3.7,0.1c0.6-3.1,0.4-5.3,0.4-5.3c-0.9-3-0.2-9.7-0.2-9.7
		c1.3-3.9-0.6-3.7-0.6-3.7c-0.5,0.2-1,0.4-1.5,0.7c0.2-2-0.9-4-0.9-4c-2-2.7-0.6-8.5-0.6-8.5c3.7-4.6-1-4.4-1-4.4
		c-6.1,2.8-7,10-7.1,12.5c-0.8,0.2-1.6,1-2.2,2.1c-1.3-1.3-4.2-5.1-2.2-10.7c1.2,0.5,2.5,0.6,3.7,0.2c2.7-0.3,4.8-2.6,4.8-5.4
		c0-3-2.5-5.5-5.5-5.5c-0.5,0-1,0.1-1.5,0.2c-1.2,0.1-2.3,0.7-3.2,1.6c-1,1-1.5,2.2-1.6,3.6l0,0c-0.5,0.5-1,1.2-1.2,1.7
		c0,0-3.6-3.8-4.7-8.1c1.2-0.3,4.3-1.6,4.9-5.9c0,0,0.1-3.9,2.8-5.7c0,0,4.1-2.2-2.5-3.2c0,0-3.3-0.1-5.2,1.4
		c-0.3-3-1.1-6.2-3.1-8.2c0,0-2.2-3.9-1-6.9c0,0,0.6-2.2-2.8-0.7c0,0-1.1,1-2.3,2.4c-1-1.6-2-2.5-2.9-3v-4.7v-1.2h-1.2h-8.4
		c-0.9-1.9-4.2-4-4.2-4c-2.6-0.8-5.4-3.4-5.4-3.4c-1.8-2.5-2.9-1.8-2.9-1.8c-2.5,0.7-1.2,4.4-1.2,4.4c1.3,1.6,1.6,3.6,1.7,4.8h-1
		c-0.6-1.6-2.6-2.9-2.6-2.9c-8.5-3-9.4-7.9-9.4-7.9c0-0.4-0.1-0.8-0.2-1.1l0.5-0.7c0.4-0.7,0.7-1.5,0.7-2.3c0-2.5-2-4.5-4.5-4.5
		c-2.5,0-4.5,2-4.5,4.5c0,1,0.4,2,1,2.8c-3.1,0.4-7.1-2.4-7.1-2.4c-2.9-5.6-9.6-7.3-9.6-7.3c-3.7,0.2-8-2.9-8-2.9
		C135.8,0.4,135.2,0,134.7,0L134.7,0z"/>
	<path fill="#A51C30" d="M46.9,28.5h153.7v52.8c0,81.6-73.7,123-76.9,124.7c-3.2-1.7-76.9-43.2-76.9-124.7
		C46.9,81.3,46.9,28.5,46.9,28.5z"/>
	<path fill="#101820" d="M106.6,47.6c-0.8,0-1.5,1-2.3,1.3c-4,1.8-8.1,0.4-12.6,1l-3.4,1.1c-0.9-0.1-1.6-0.7-2.5-0.8
		c-3.3,0-6.4-0.6-9.6-0.1c-2.5-0.4-4.9-0.7-6.8-2.1c-1.3-0.1-1.2,1.8-2.4,1.8c-0.9,0-1.9,0.3-2.8,0.1c-1.2-0.1-2.3,0.5-2.8,1.4
		l-0.3,6c0,0.4-0.3,0.9-0.7,1c-2.4,0.1-5.1-0.2-6,2.3c-0.2,1.1-0.5,2.5,0.3,3.5c1.3,1.3,3.4,1.4,5.2,1.3c1.3,0.2,1,1.7,1,2.6
		c0.2,5.1-0.4,10,0,15.4c-0.6,2.7-4,0.2-5.5,1.8c-0.6,0.8-1.1,1.9-1,2.9c-0.1,1.4,0.3,2.7,1.8,3.3c1.5,0.6,3.3,0.1,4.7,0.9
		c0.7,2.3-0.5,5.6,1,7.8c0.8,0.7,1.8,0.9,2.8,1c3.2,0,6.1,0.5,9.2-0.2c3.2,0.1,6.4-0.4,9.6,0.1c0.8,0.3,2,0.2,2.3,1.2
		c1.4,0.9,3.3,1.6,5,0.7c0.9-0.8,1.5-1.9,2.6-2.2l5.1,0.2c1.4-0.6,3.2-0.4,4.6-0.2c2.7,0.1,5.3,0.1,7.9,0c1.3-0.2,2.8-0.3,3.9-1.1
		c1.5-2.8-0.5-6,1.1-8.7c1.6-0.4,3.5,0.5,4.8-0.7c1.1-0.9,1.6-2.2,1.4-3.7c-0.9-2.1-3.4-2.4-5.4-2.3c-0.9-0.2-1.1-1.2-1.3-1.9
		c-0.2-4.6,0.1-8.7,0.2-13.2c0.5-1.4-0.4-2.8,0.6-4c1.5-1.1,3.8-0.1,5-1.8c0.1-1.1,0.6-3-0.5-3.9c-1-1.1-2.7-1-4-1
		c-3-2.2,0.1-5.2-1.6-7.9c-1.3-1.2-3.4-1.3-5-0.9c-1.1-0.1-1.9-1-2.6-1.8C107.1,47.7,106.8,47.6,106.6,47.6L106.6,47.6z M178.8,47.9
		c-0.1,0-0.2,0.1-0.4,0.1c-4.7,3.7-11.4,0.8-16.9,2.1c-0.6,0.1-1,0.8-1.8,0.6c-4.3-2.3-9.5-0.2-14-1.3c-2-0.1-3.7-2-5.5-0.9
		c-0.8,2.8-4.2,0.6-6.1,1.3c-3.4,1.4-1.1,5.1-1.7,7.8c-1.1,2.2-4,0.1-5.5,1.9c-0.8,0.6-1.1,1.6-1.2,2.7c0.2,4,5,1.7,6.9,3.8
		c-0.5,2.5,0.3,5-0.2,7.2c-0.3,3.6,0.6,7,0.2,10.4c-1.7,1.8-5.5-0.1-6.4,2.8c-0.8,1.2,0,2.6,0.6,3.7c1.3,1.1,3.1,1.3,4.9,1.2
		c1.7,1.6,0.7,4.2,0.8,6.4c0.2,0.8-0.2,1.6,0.5,2.3c2.1,0.7,4.5,0.7,6.7,0.7c5,0,9.5,0,14.1,0.2c2.4-0.6,3.8,1.8,6,1.9
		c2.1,0.3,2.5-2.7,4.6-2.1c0,0,10.4,0.1,10.4,0.1c2,0.1,4.1-0.1,6,0.2c2-0.4,4.5,0.4,5.7-1.2c0.7-2.4,0.4-4.8,0.7-7.2
		c0.6-2,3.4-0.7,4.8-1.6c1.1-0.4,1.8-1.4,2-2.5c0.4-1.5-0.6-2.7-1.5-3.7c-1.2-0.7-2.5-0.3-3.9-0.6c-0.8-0.2-1.1-1-1.2-1.7
		c0.1-3-0.4-6.2,0.2-9.1c-0.2-2.5-0.3-4.8,0-7.2l0.4-0.6c1.6-0.4,3.6,0.2,4.8-1c0.8-1.1,1.4-2.7,0.7-3.9c-0.6-2.5-3.4-1.8-5.2-2.1
		c-1.7-0.8-0.8-2.7-0.9-4.1c0-1.3,0.6-3.2-0.9-4.2c-1.3-0.6-3-0.3-4.3-0.2C180.3,50.6,180.5,47.8,178.8,47.9L178.8,47.9z
		 M98.4,117.7c-0.9,0.1-1.2,1.9-2.1,2.2c-2.1,0.7-4.6-0.6-6.3,1c-1,2.1,0.2,4.6-0.3,6.9c-0.3,1.4-2,0.8-3.2,0.9
		c-1.7,0-3.5,0.4-4.4,1.8c-0.3,0.9-0.4,1.9-0.2,3c0.9,2,3.5,1.9,5.4,2.3c0.7,0,1.5-0.2,2,0.4c0.3,3,0.1,5.7,0.2,8.6
		c-0.4,1.9,0.1,4.3,0,6.3c-0.1,0.8-0.3,1.8,0,2.5c-0.1,0.6-0.2,1.3-0.9,1.4c-1.4,0.2-3.1-0.4-4.3,0.3c-1,0.3-1.7,1.2-2.1,2.1
		c-0.2,0.9-0.2,2,0.2,2.8c1.5,1.8,3.9,1.4,6,1.6c2.2,0.5,1.1,3.3,1.3,4.9l0.2,3.4c0.6,2.1,3.3,1.5,4.9,2.1l3.5-0.4
		c2.3,0.6,4.9-0.4,7.1,0.1c2.6-0.7,5.3-0.3,8.1-0.3c1.7-0.1,3.6-0.1,5.4-0.2c1.5,1,3.2,2.4,5.1,1.7c1.6-1.4,4-1.7,6-1.4l4.3-0.2
		l0.8,0.3l5.2-0.2c3.2,0.1,6.4-0.3,9.9-0.1l3-0.2l2.6-0.7c1.8-1.7,0.6-4.6,1-6.8c0.3-0.8,0.1-1.9,1.1-2.2c2.2-0.3,5-0.1,5.8-2.6
		c0.2-1,0.3-2.2-0.2-3c-0.9-1-2-1.4-3.3-1.7c-1.2,0.2-3,0.3-3.7-0.8c0.5-6.1-0.2-11.3,0.3-17.4c0,0,0.7-0.9,0.7-0.9
		c2-0.4,4.6-0.1,5.6-2.3c0.4-1,0.1-2.2-0.6-3.2c-1.2-2.3-4.2-0.4-5.8-1.7c-1-2.1,0.6-4.5-0.2-6.8c-1.3-2.3-4.3-1.5-6.5-1.5
		c-1.2-1-2.8-1.2-4.3-1.5c-2.2,1.4-4.9,1.8-7.6,1.8c-3.4,0.4-6.6-0.4-9.9-0.2c-2-0.1-4.2-0.3-5.6,1.2l-2.6-1.1
		c-6.3-1-13,1.5-19.2-0.7l-1.9-1.2C98.9,117.7,98.6,117.6,98.4,117.7L98.4,117.7z"/>
</g>
<path fill="#FFFFFF" d="M105.1,50.6c-2.3,1.4-5.3,1.6-8.1,1.4c-2,0.1-4.4-0.2-6.3,0.3c-1.7,0.5-1.6,2.5-2,3.9c0.4,2.3,0,4.8-0.1,7.1
	c-0.1,8.2-0.1,16.8,0.3,25.1c0.2,1.4-1.2,3.4,0.4,4c4.2-0.7,8.8-0.4,13-0.4l2.5-0.6c1.3-0.8,0.9-2.7,1-3.9c-0.2-6-0.1-11.5-0.1-17.7
	c0.4-4.1,0-8,0-12.1c-0.2-2.3,0.4-4.2,0.1-6.1C106,51,105.6,50.6,105.1,50.6L105.1,50.6L105.1,50.6z M142.2,50.7
	c-0.9,0.5-0.7,2-0.7,2.9v10.6c-0.5,7.7,0.2,14.9,0.1,22.5c-0.1,1.4-0.5,2.6,0,3.9c1.4,1.4,3.8,0.9,5.6,1.3c0.8-0.1,1.7-0.4,2.7-0.2
	c2,0,3.9-0.1,5.9,0.1c0.6,0.1,1.5,0.5,2.1,0c0.1-3-0.1-5.4,0.2-8.2c-0.1-1.6,0.1-3.1,0.1-4.7c-0.4-5.8,0.2-11.9,0-17.8
	c0.3-2.9,0.3-5.5-0.5-8.5c-0.5-1.1-1.8-0.8-2.7-1c-3.1,0-6.3,0.7-9.3,0C144.7,50.9,143.5,50.8,142.2,50.7L142.2,50.7z M177.2,50.7
	c-4.5,2-10,0.8-14.9,1.3c-0.8,0.2-1.6,0.8-1.8,1.7c-0.2,10.6-0.5,19.5-0.1,30.2c-0.1,2.8-0.4,5.3-0.5,8.1c0.8,1.1,2.1-0.4,3.2-0.3
	c3.4-0.4,7,0.4,10.6,0c1.4,0,3.3,0,3.9-1.2c-0.1-5.9,0.4-12.1,0.1-17.8c0.6-6.8-0.2-14.2,0.2-21.2C177.8,51.2,177.7,50.7,177.2,50.7
	L177.2,50.7L177.2,50.7z M71.4,51.1c-0.2,0-0.5,0-0.7,0.2c-0.5,0.4-0.6,1-0.4,1.6c0.2,2-0.2,4.2,0.1,6c-0.4,4.1-0.1,8-0.3,12.1
	c0.1,5.4,0.5,11.9,0.2,17.6c0.4,0.7-0.4,1.6,0.3,2.3c1.2,1.3,3.6,1.1,5.3,0.9c3.7,0.2,7.1,0,10.6,0.9c0.3,0,0.5-0.4,0.6-0.7
	c-0.6-3-0.1-5.5-0.4-8.5l0.2-9.9v-1.9c0.4-6.1,0.1-11.5,0-17.3l-0.7-1.5c-1.1-0.6-2.4-1.1-3.8-0.9c-0.5,0.1-1,0.5-1.6,0.3
	c-2.3-0.1-5,0.4-7.2-0.5C72.8,51.6,72.1,51.1,71.4,51.1L71.4,51.1L71.4,51.1z M108.1,51.8c-0.1,0-0.2,0-0.4,0.1
	c-0.4,0.6-0.2,1.5-0.1,2.2c-0.3,6.5,0,13.4-0.1,19.8c0,5.4,0,10.2-0.1,15.6c0.5,1.2,0.8,2.7,2.1,3.3c0.3,0,0.5-0.3,0.5-0.7V81.5
	c0-8.5,0.3-17.3,0-25.7c0.2-0.7-0.1-1.7-0.5-2.4C109.3,52.8,109,51.8,108.1,51.8L108.1,51.8z M180.3,52.1c-0.1,0-0.3,0-0.4,0
	c-0.5,0.1-0.4,0.6-0.5,1c-0.2,3.9,0.4,7.2,0,11c-0.1,8.2-0.1,16.2-0.1,24.5c-0.3,1.5,0.4,2.9,1.4,3.9c0.3,0.4,0.8,0.4,1.1,0.1
	c0.5-2.7-0.3-5.5,0.2-8.3c0.1-3.4-0.3-6.2-0.1-9.5c0.2-6.7,0.3-13.3,0.1-19.8l-0.4-1.2C181.2,53.2,181.1,52.2,180.3,52.1L180.3,52.1
	z M68.1,52.3c0,0-0.1,0-0.2,0v0c-1.2,0.5-1.5,1.9-1.8,3v13.2c-0.4,6,0.3,12.1-0.1,18.1c-0.1,2.2,0.2,4.1,0,6.1
	c0.2,0.4-0.2,1.3,0.6,1.4c2-1.2,2-3.8,1.7-6c0-3.4-0.1-7.5,0.1-10.9c0-4.5-0.2-8.7,0-13.1c-0.5-3.1,0.3-6.5,0-9.7
	c-0.4-0.5-0.2-1,0.1-1.5C68.4,52.7,68.4,52.3,68.1,52.3L68.1,52.3z M139,52.6L139,52.6c-0.3,0-0.5,0.6-0.9,0.8
	c-1.1,2.3-0.5,4.4-0.7,6.9c0.1,8.4-0.2,16.3,0.1,25.2c-0.4,2.3,0.3,4.4-0.1,6.7c0.1,0.3,0,1,0.6,0.9c1-0.2,1-1.3,1.5-2
	c0.1-8.2,0.2-16.2,0.1-24.1c0.5-3.5-0.2-7,0.1-10.3c0-1.3,0-2.7-0.4-3.9C139.2,52.7,139.1,52.6,139,52.6L139,52.6z M107,92.6
	c-0.2,0-0.3,0-0.5,0c-3.2,1.5-7.4,1.1-11,1.3c-1.5,0.4-2.8-0.6-4.3,0c-0.4,0.2-1.1,0.6-0.8,1.2c1,1.8,3,0.5,4.8,0.8
	c2.6,0,4.5-0.1,6.9-0.2h6.2c0.4,0,0.9-0.5,0.7-0.9C108.3,94.2,108.1,92.7,107,92.6z M140.8,92.7c-0.6,0.5-1.5,1-1.5,1.8
	c0,0.5,0.5,0.7,0.9,0.8l10.9-0.1c2-0.2,3.9,0.9,5.8,0.4c0.5-0.6,0.3-1.2-0.2-1.7c-2.3-0.8-5.5-0.3-8-0.4
	C146,93.7,143.3,93,140.8,92.7L140.8,92.7z M178.1,92.8c-2.7,0.9-5.7,1-8.7,0.9c-2.6,0-5.5-0.6-7.8,0.5c-0.1,0.5,0.1,1.2,0.6,1.4h18
	c0.6,0.2,0.8-0.5,0.6-0.9C180,93.8,179.3,92.8,178.1,92.8L178.1,92.8z M69.9,92.9c-0.1,0-0.2,0-0.3,0c-0.9,0.4-1.5,1.2-1.6,2.2
	c0.1,0.9,1.5,0.5,2.1,0.6c5,0.6,10.2-0.5,15.2,0.4c0.6-0.1,0.6-0.7,0.6-1.1c-0.2-0.7-1-0.8-1.6-1c-4-0.4-8.6,0.3-12.6-0.4
	C71.1,93.4,70.6,92.9,69.9,92.9L69.9,92.9z M146.4,120.5c-0.1,0-0.3,0-0.4,0c-0.2,0-0.4,0-0.5,0c-2.2,1.2-4.8,1.5-7.5,1.4
	c-3.5,0.2-6.8-0.4-10.3-0.4c-1.3,0.5-3.5-0.1-3.8,1.7c-0.1,2.8-0.1,5.1,0,7.9c0.7,1.9,1.3,4,1.9,6c0.4,3.4,2.4,6.1,2.7,9.5
	c0,1.9,2.4,2,2.6,3.7c-0.8,1.2-2.6,0.4-4,0.5c-0.6,0-1.3-0.1-1.5-0.7c0.6-1.7,0.2-3.8-0.8-5.2c-0.3-0.2-0.7-0.5-0.9-0.1
	c-0.8,1.9-0.1,4-0.3,6.1c0.2,2.8,0.3,4.8,0.1,7.6c0.7,1.4-0.5,2.9,0,4.3c1.5,0.6,2.5-1,4-0.8l11.9,0.1c2.4,0.1,4.9-0.1,6.8-1.3
	c0.9-1.1,0.3-2.7,0.5-4.1c-0.3-5.3,0.3-10.2,0-15.5c0.3-6.8-0.8-13.2,0.1-19.9C147.1,120.6,146.8,120.5,146.4,120.5L146.4,120.5z
	 M99.4,120.7c-0.6,0.3-0.2,0.8-0.5,1.2c0.7,4.3,0.2,9.1,0.1,13.5c0.3,8.6,0.1,16.6,0.2,24.9l0.6,0.7c1.7,1.1,4.1,1,6.2,1
	c2.3-0.1,4.6,0.1,6.8,0.1l3.6-0.1c1.6-0.3,3.2,0.5,4.8,0.2c0.6-0.2,0.5-0.9,0.5-1.4c0.2-2.7-0.2-5.8-0.1-8.5
	c-0.2-2.7,0.6-5.1-0.2-7.6c-0.4-0.3-1-0.1-1.3,0.2c-1.3,1.4-0.8,3.5-0.6,5.3c-0.1,0.5-0.5,0.8-1.1,0.7c-0.9,0.1-2.3,0.2-3.1-0.3
	c-0.6-1.2,1.1-1.4,1.7-2.1c1.5-4.2,2-8.7,3.6-13c0.8-2.5,1-5.2,1-7.9c-0.3-1.9,1-4.5-1.3-5.6c-5.6-1.2-11.3,0.4-17-0.2
	C101.9,121.4,100.8,120.8,99.4,120.7L99.4,120.7L99.4,120.7z M149.3,121.9l-0.5,0.6c-0.1,2.6-0.2,5.4,0,7.9v5.9l-0.1,3.6
	c-0.1,5.6,0,12.6,0.1,18.3c-0.6,1.9,0.5,3.7,1.6,5c0.2,0.2,0.6,0.5,0.8,0.1l0.2-11.7c0-8.9,0.2-18.4-0.3-27.5
	C150.7,123.4,150.1,122.3,149.3,121.9L149.3,121.9z M96.3,122.7c-0.5,0.7-1.2,1.5-1.4,2.4c-0.2,11.1,0,22.5,0,34l-0.1,4.1
	c0,0.3,0.3,0.5,0.6,0.5c1.2-1,2-2.7,1.7-4.3c0-11.7,0-22.6-0.1-33.5C96.6,124.9,98,123,96.3,122.7L96.3,122.7z M121.6,137.7
	c-0.1,0-0.2,0.1-0.3,0.2c-0.3,1.5-1.3,3.3-0.5,4.8c0.3,0.3,0.9,0.2,1-0.2l0.3-4.2C122.1,138,121.9,137.6,121.6,137.7L121.6,137.7z
	 M123.7,141.4C123.7,141.4,123.7,141.4,123.7,141.4c-0.2,0.1-0.2,0.2-0.3,0.4c0,0.3-0.1,0.8,0.4,0.7c0.2,0,0.2-0.2,0.3-0.3
	C124.3,141.9,124,141.4,123.7,141.4L123.7,141.4z M98.5,162.4c-1.1,0.6-1.8,1.5-2.2,2.7c0,0.5,0.6,0.4,0.9,0.4
	c1.8-0.4,3.9,0.3,5.8,0.2l16.5,0.1l0.7-0.4c0.2-0.3,0.4-0.7,0.2-1c-0.8-0.7-2.2-0.6-3.2-0.6c-5.2,0-10.6,0.2-15.7-0.2
	C100.5,163.4,99.7,162.6,98.5,162.4L98.5,162.4z M147.5,162.4c-0.3,0-0.7,0.2-1.1,0.6c-4.8,1.3-9.8,0.6-14.8,0.8c-2,0-4.3-0.4-6,0.5
	c-0.4,0.5,0.1,1.1,0.6,1.4c3.8-0.1,7.7,0.2,11.3,0c3.8,0,7.2-0.2,11,0c0.5-0.1,1.5-0.1,1.3-0.9C149.1,164.1,148.5,162.5,147.5,162.4
	L147.5,162.4z M51.1,164.9c-1.9,0.1-3.6,0.8-3.9,0.9c0,0-0.1,0.1-0.3,0.2c0,0,0,0,0,0c-0.6,0.6-2.2,2-4.2,3.9
	c-5.4,5.1-15.8,14.9-16,15.1c-0.2,0.3-0.8,1.7-0.8,3.6c0,2.3,0.9,5.3,4.8,8.1c0,0,4.9,2.6,7.8,0.1l15.8-19.1c0-0.1,4.5-5.2,10.6-0.1
	c0.4,0.3,1.7,1.4,1.7,2.5c0,0.2,0,0.3-0.1,0.5c-0.4,1.1-1.7,1.4-2.8,1.4c-0.3,0.1-2.1,0.9-3.7,2.7c0,0-15.7,18-15.8,18.2
	c-0.1,0.3-0.8,1.9-0.8,3.9c0,1,0.2,2.1,0.7,3.2c1.1,2.3,3.5,4,7.1,4.9c0.2,0,4.4,1.1,8.8,5.2c0.6,0.5,63.5,45.4,132.1-3
	c0.4-0.4,2.3-2.2,6.6-2.4c0.1,0,3.9-1.3,5.4-4.6c0.4-0.8,0.5-1.8,0.5-2.7c0-1.5-0.4-3-1.2-4.8c-1.3-1.6-3-3.5-4.8-5.6l-0.1,0
	c0,0,0,0,0,0c-4.8-5.6-10.3-11.9-11.8-13.1c0,0-0.9-0.7-2.5-1.3c-0.9-0.1-3.2-0.4-3.6-1.9c0-0.1-0.1-0.3-0.1-0.4
	c0-1.4,1.7-2.6,3.2-3.5c0,0,5-2.8,10.2,1.7l14,17.7c0.2,0.2,4.7,4.3,9.2-0.2c0,0,4.1-3.2,4.4-7.1c0.1-1.8-0.5-3.6-2-5.1l-16.4-15.6
	c-0.1-0.1-1.5-1.5-3.4-2.4c-0.3-0.1-0.6-0.3-1-0.4c-1.8-0.6-3.9-0.6-6,1.2c0,0-0.9,0.8-1,2c0,0.7,0.3,1.4,0.8,2
	c1.5,1.1,2.2,1.7,2.5,2.1c1.1,0.2,3.1,0.2,2.8-2.6c0,0,0.1-1.4-1.1-1.2c0,0-1.8-1,1.3-1.3c0,0,5.6,2-1.4,6.6c0,0-0.8,0.6-3.1,0
	c-8.7-1.4-12.6,2.9-12.8,3.2c-1.4,1.4-2.2,2.7-2.2,3.8c0,0.1,0,0.2,0,0.3c0.2,1.2,1.2,2,1.6,2.2c1.6-0.2,2.5,0.5,2.6,0.6
	c1.5,1.4,2.2,2.7,1.9,3.9c-0.5,1.8-2.8,2.5-3,2.5l-0.2,0l-0.2,0c-3.4-0.4-5.8,1.2-5.7,1.2c-0.5,0.4-47.7,38.7-103.8-0.4
	c0,0-1.8-1.4-6-1l-0.1,0l-0.1,0c-0.2-0.1-2.3-0.5-2.9-2.2c-0.4-1.1,0-2.2,1-3.4c0.1-0.2,1.1-1.4,3.7-1c0.2,0,1.3-0.2,1.7-1.1
	c0.1-0.2,0.1-0.4,0.1-0.7c0-0.9-0.5-2.1-1.5-3.5c-0.1-0.1-6.3-6.8-13.6-4.5c-0.7,0.3-1.5,0.4-2.4,0.4h0c-0.1,0-0.2,0-0.3,0l0,0
	c-0.9-0.2-3.4-0.9-4.3-4.2c0,0,0.2-2.6,2.5-2.7c0,0,2.2,0.5,1,1.3l-0.1,0c0,0-1.6-0.4-1,1.7c0,0,0.4,2.1,2.5,2.3
	c0.4,0,0.8-0.1,1.2-0.2c0,0,0,0,0,0c0,0,0.1,0,0.1,0c0.3-0.2,0.7-0.3,0.9-0.6c0.6-0.7,0.8-1.9,0.8-2.9c0-0.8-0.1-1.6-0.2-2
	c-0.7-1.3-2-1.8-3.2-1.8C51.6,164.9,51.3,164.9,51.1,164.9L51.1,164.9L51.1,164.9z M59.3,177.1c-2.1,0.1-3.4,1.5-3.6,1.7l-11.5,13.8
	c1.2,0.5,2.6,1.5,3.5,3.4l11-12.6c2.1-2.2,4.4-3.2,4.5-3.2l0.1-0.1l0.2,0c0.9,0,1.2-0.1,1.3-0.2c-0.1-0.3-0.5-0.7-1-1
	C62.1,177.5,60.5,177.1,59.3,177.1L59.3,177.1z M187.8,177.6c-0.2,0-0.4,0-0.6,0v0c-1.5,0.1-2.4,0.6-2.5,0.7c-2,1.2-2.3,1.8-2.3,1.9
	c0.2,0.2,1.2,0.5,2.1,0.6l0.1,0l0.1,0c2,0.7,3.1,1.7,3.1,1.7c1.6,1.3,7.2,7.7,11.6,12.7c0.7-1,1.7-2.1,3.5-2.6l-10.2-12.9
	C190.9,178.1,189.2,177.7,187.8,177.6L187.8,177.6z"/>
<path fill="#AD8B3A" d="M135.6,2.6c-0.6,0.1-1.5,0.5,0.1,2.9c0,0,0.5,0.6,1.6,1.2c2.3,0.3,10.9,1.7,14.1,7.8c0,0,0,0.1,0,0.1
	c0.2,0.3,0.4,0.9,0.7,2.2c0,0-2.8-0.3-5.7,1.3c4-0.4,3.4,1,3.4,1c-4.7,0.1-9.4,5.5-9.4,5.5c-1.3-2.2,0.9-4.3,2.4-5.4
	c-3.6,0.4-10.7,0.3-17.5-4.9c-4.2-0.2-3.2,1-3.2,1c1.8,0.2,3.5,1.6,3.5,1.6c4.4,5.4,10.4,5.3,10.4,5.3c3.7-0.2,2.6,0.4,2.6,0.4
	c-1.2,1-2.1,2.6-2.5,3.5h6.3c1.9-1.2,7.7-4.7,9.2-7c0,0,4.9-2.9,8.5,0.6c0,0,0.4,3,3.8,2.7c0,0,6-0.4,7.7,3.8h7
	c-0.7-0.7-2.1-2-5-3.5c0,0-6-3.1-6.4-6.9c0,0-2.6-1.3-2.8,0.7c0,0,0.3,3.2-2.6,0.4c0,0-0.8-0.8-4.4-2.1c0,0-3.9-0.8-6.9-5
	c0,0-3.5-3.9-8.4-4.5c0,0-4-0.7-6-2.6C136,2.6,135.8,2.5,135.6,2.6L135.6,2.6z M128.8,2.8c-0.3,0-0.2,0.6-0.2,0.6
	c0.1,2.4,1.8,3.4,3,3.9c0.6-0.2,2.2-0.8,3.7-0.9c-0.5-0.5-1-1.3-1.3-2.3c-1.6,0.5-4.2-0.3-4.2-0.3C129.3,3.1,129,2.8,128.8,2.8
	L128.8,2.8z M97.1,5.7c-0.4,0-1,0.3-2.1,1.4c0,0-1.3,0.9-3.1,0.8c0,0-4.6,1.5-6.5,7.2c0,0-1.2,1.8-6.9,2.7c0,0-2.6,1.3-4.5,2.5
	c0,0-1.8,1.1-1.5-0.3c-0.8,0.7-1.8,1.1-2.9,1.1c-0.1,0-0.2,0-0.4,0c-0.3,2.4-3.1,4.2-4.8,5.1h5.3c2.8-4,12-2.6,12-2.6
	c3.2-0.9-1.1-1.5-1.1-1.5c-4.1,0.1-1.8-1.3-1.8-1.3c1.1,0.7,4.2,0.1,4.2,0.1c1.8-0.5,3.2-0.7,4.3-0.8c0.7-0.6,1.5-1,2.5-1.2
	c-0.3-0.2-0.2-0.1,0,0c2.8-0.8,6.1-0.7,6.1-0.7c6.1-1.3-8.8-1.8-8.8-1.8c0.8-0.6,2.4-0.8,3.9-0.8c3.9-3,9.9-3.6,9.9-3.6
	c7.8,0.3,8.3,3.5,8.3,3.5l0,0c0.3,0,0.7-0.1,1-0.1c1.5-0.4,3.4-1.3,4-2.9c0,0,0.4-0.9-1.9-0.9c0,0-1.7-1-3-2c0,0-8.8-4.2-19.1,4.5
	c0,0-0.9,0.1,1.6-2.5c0,0,2.8-2.1,4.8-3.2c0,0,2-1.1,1-2.2C97.6,6,97.5,5.7,97.1,5.7L97.1,5.7L97.1,5.7z M137,8.4
	c-1.8,0-4,0.2-6.4,0.8c0,0-4.4,1.2-8.2-0.2c0,0-2,0.8,3.4,3.6c0,0,12.3,10,22.2,2.5c-2.2-1-7.2-2.8-12-0.9c0,0-0.1-3.9,10.8-1.9
	C145.5,10.7,142.5,8.4,137,8.4L137,8.4z M164.9,8.5c-1.5,0-2.7,1.2-2.7,2.7c0,0.9,0.4,1.7,1.1,2.2c0.9-0.3,2.4-0.7,3.6-0.4l0.3-0.4
	c0.3-0.4,0.4-0.9,0.4-1.4C167.6,9.7,166.4,8.5,164.9,8.5L164.9,8.5z M154.1,11.2L154.1,11.2C154.1,11.2,154.1,11.2,154.1,11.2
	L154.1,11.2z M154.1,11.2c0.1,0.1,0.1,0.2,0.2,0.3c0,0,0.1,0.1,0.4,0.3L154.1,11.2L154.1,11.2z M103.1,12.8
	c-5.3,0.2-7.6,1.9-8.4,2.8c0.2,0,0.3,0,0.3,0c5.5-0.2,6.5,0.3,6.5,0.3c-0.8,2.8-4.9,3-4.9,3c-2.3,0.2-3.6,0.6-4.5,1
	c3.6,1.6,9.4,0.1,9.4,0.1c2.8-2.2,5.5-3.6,5.5-3.6C110.4,14.9,103.1,12.8,103.1,12.8L103.1,12.8z M69.6,13.6c-1.5,0-2.8,1.3-2.8,2.8
	c0,1.5,1.3,2.8,2.8,2.8c1.5,0,2.8-1.3,2.8-2.8C72.4,14.9,71.1,13.6,69.6,13.6z M110.3,16.7c-0.9,0-1.6,0.1-2.2,0.1
	c-2.4,1.1-4.8,3.8-4.8,3.8c-0.5,0.4-0.9,0.8-1.4,1.1c2,1.1,5.7,0.5,5.7,0.5c6-2.2,10.8-1.7,10.8-1.7C116.6,17.4,113,16.8,110.3,16.7
	L110.3,16.7z M181.9,19.2c0,0-1.6,0.2,0.1,3.8c0,0,0.6,1.7,0.7,3.1h3.7c-0.6-0.9-1.8-2.5-2.9-3.2c0,0,1.1-1.1,4.9,3.2h3.2
	c-1-1.3-3.5-4.1-7.6-5.4C183.9,20.7,182.3,20.2,181.9,19.2L181.9,19.2z M56,22.3c-0.4,1.1-2.2,2.8-3.3,3.8h4
	C57.8,23.4,56,22.3,56,22.3L56,22.3z M157.1,22.3c-1.4,0-2.6,1.2-2.6,2.6c0,0.4,0.1,0.8,0.3,1.2h4.6c0.2-0.4,0.3-0.8,0.3-1.2l0-0.4
	l0.1,0c-0.6-0.4-1.5-1.1-1.9-2.1l0,0.1L157.1,22.3L157.1,22.3z M93.1,22.8c1.8,1.5,3.7,2.7,4.8,3.3h11.4c-0.4-1.3-1.3-2.1-2-2.5
	c-3.1,0.4-6.3-0.2-7.9-0.7C97.1,23.7,94.9,23.3,93.1,22.8L93.1,22.8z M85.5,23.2l-0.7,0.1c-0.3,1-1,1.4-1.7,1.6l-0.1,0.8l0.1,0.4
	h4.8l0.1-0.4C88,24.3,86.9,23.2,85.5,23.2L85.5,23.2z M203.1,34.2v6c0,0,0.1,0,0.1,0c0.2-1.3,0.9-2.7,1.7-3.8
	C204.5,35.8,203.9,34.9,203.1,34.2L203.1,34.2z M44.5,34.7c-0.6,0.6-1.1,1.3-1.4,1.9c0.6,0.9,1.1,1.8,1.4,2.7V34.7L44.5,34.7z
	 M207.8,36.2c-0.2,0-0.4,0.2-0.4,0.2c-2.2,1.6-2.9,3.7-3,4.7c3,2.2,6.8,6.8,6.8,15.3c0.9,0.1,1.3,0.5,1.3,0.5
	c0.4-0.3,0.7-0.5,1.1-0.7c1.6-6.2-1.1-11.6-1.1-11.6c-1.2-1.6-2.9-6.4-2.9-6.4C208.9,36.4,208.2,36.1,207.8,36.2L207.8,36.2z
	 M40.1,36.4L40.1,36.4c-0.4,0-1,0.2-1.7,2c0,0-1.7,4.8-2.9,6.4c0,0-2.6,5.4-1.1,11.6c0.3,0.2,0.7,0.5,1.1,0.7c0,0,0.5-0.4,1.3-0.5
	c-0.1-8.5,3.8-13,6.8-15.3c-0.2-1.1-0.8-3.2-3-4.7C40.5,36.5,40.4,36.4,40.1,36.4L40.1,36.4z M203.1,43v7.6c2.9,2.2,5.8,6.3,5.8,6.3
	c0.2-0.1,0.3-0.2,0.5-0.2C209.5,54.1,209,47.1,203.1,43L203.1,43z M44.5,43.4c-5.6,4.1-6,10.9-6,13.4c0.2,0.1,0.3,0.1,0.5,0.2
	c0,0,2.7-3.8,5.5-6.1L44.5,43.4L44.5,43.4z M219.9,48.7c-2.4-0.1-4,1.1-4.7,1.7c0,2-0.1,3.7-0.3,4.8c1.6-1,2.5-1.5,2.5-1.5
	c-2.4,2.1-3,4.6-2.7,6.9c2.6-0.3,3.2-3.6,3.2-3.6c0.7-3.5,1.9-5.8,1.9-5.8c3.2-1.9,1.1-2.5,1.1-2.5
	C220.6,48.7,220.3,48.7,219.9,48.7L219.9,48.7z M28,48.8c-0.3,0-0.7,0-1.1,0.1c0,0-2.1,0.6,1.1,2.5c0,0,1.2,2.3,1.9,5.8
	c0,0,0.5,3.2,3.2,3.6c0.3-2.4-0.3-4.8-2.7-6.9c0,0,0.9,0.4,2.5,1.5c-0.1-1-0.3-2.8-0.3-4.8C32,49.9,30.4,48.8,28,48.8L28,48.8z
	 M135.6,51.5c-0.4,0.1-0.7,0.2-1,0.4c-0.7,2-0.5,4.2-0.6,6.3c-0.5,3.2-4.6,1.2-6.4,3c-0.4,0.8-0.1,1.6,0.7,2c2,0.5,4.9-0.5,5.7,2
	c0.2,2.4-0.2,4.8,0.1,6.9c-0.1,4.3,0.2,8.7-0.5,12.8c-0.9,1.7-3.2,1.1-4.8,1.5c-0.7,0.2-1.2,0.8-1.1,1.5c0.7,2.1,3.3,1.1,5,1.6
	c0.7,0.5,1.4,1.3,1.5,2.2c0.2,1.9,0,3.7,0.2,5.5c0.8,2.1,3.7,1,5.5,1.4c5-0.3,10.1,0.1,15.1-0.1c0.3-0.2,0.8-0.4,0.7-0.9
	c-0.2-0.5-0.7-0.5-1.1-0.7c-5.8-0.6-11.4,0-17.2-0.5c-0.7-0.4-1.3-0.8-1.4-1.6c-0.5-7.5,0-16.3-0.2-23.5c0-4.8,0-9.3,0.1-14.3
	c-0.3-2,0.5-3.6,1.1-5.2l-0.3-0.3C136.4,51.5,136,51.4,135.6,51.5L135.6,51.5z M111.8,51.6c-0.4,0.1-0.7,0.3-0.8,0.7
	c0.9,2.6,0.3,5.8,0.7,8.5c0,6.6,0,12.5-0.1,18.9c-0.4,5.4,0.5,10.7-0.3,15.9c-1.2,2.4-4.4,1.7-6.6,1.6l-7.1,0.2
	c-1.6-0.1-3.6-0.1-5,0.5c-0.1,0.3,0,0.6,0.1,0.8c0.5,0.1,1.1,0.5,1.6,0.1c2.2,0.7,4.4-0.3,6.5,0.1l11-0.2c0.5-0.3,1.1-0.4,1.3-1
	c0.2-2.5,0.3-5.2,0.5-7.6c1.3-2.6,5.1,0.4,6.3-2.2c-0.4-3.5-4.7-0.3-6.1-2.9c-0.6-3.1-0.2-5.8-0.4-9c0.5-4.3,0-7.9,0.6-12.2
	c0.8-1.5,3-0.4,4.3-1c0.7-0.1,1.1-0.9,1-1.5c-1.2-2-4-0.3-5.5-1.6c-0.6-2.4,0.2-4.8-0.6-7.1C113.2,51.9,112.4,51.5,111.8,51.6
	L111.8,51.6z M183.6,51.9L183.6,51.9c-1.6,0.7,0.1,2.3,0,3.6c-0.1,5.9,0,11.9,0.1,18c-0.2,5.9-0.1,11.8-0.3,17.8
	c-0.6,2.2,0.8,4.8-1.6,5.9c-3.6,0.1-7.1,0.2-10.6,0.1c-2.5,0.2-5.6-0.9-7.8,0.5c-0.1,0.3-0.1,0.7,0.3,0.9l5,0.1
	c5.1-0.1,10.1,0.3,15.3-0.1l0.9-0.8c0.3-2.5,0.7-4.9,0.7-7.4c0.9-2.5,4-0.4,5.7-1.5c0.7-0.2,0.9-1.1,0.8-1.8
	c-1.2-1.4-3.5-0.7-5.2-1.1l-0.8-0.6c-0.8-2.4-0.7-5.5-0.4-8v-7.1c0.1-1.8,0.2-3.2,0-5c0.5-3.1,4.3-0.6,6-2.3c0.2-0.3,0.3-1,0.1-1.4
	c-0.6-1.6-2.6-0.8-4-1.2c-3.7-0.8-1.2-5.2-2.3-7.7C185.1,52,184.3,51.9,183.6,51.9L183.6,51.9z M64.1,52.2c-2,1.5-0.7,4.6-1.6,6.6
	c-0.6,2.7-3.7,0.9-5.3,1.9c-0.7,0.3-1.4,1-1.2,1.9c0.4,0.9,1.4,0.8,2.2,1.2c1.1-0.2,2.4-0.2,3.5-0.1c1.1,0.5,0.9,1.8,1.3,2.7
	c-0.6,6.4,0.2,12.8-0.5,19.5L62,86.4c-1.6,0.6-3.7-0.3-5.1,0.8c-0.4,0.4-0.6,1-0.3,1.5c1.3,2,4.3,0.4,6,1.7c0.4,2.2,0.1,5,0.4,7.3
	c0.2,0.6,0.8,1.2,1.4,1.3c6.2,0.3,12.9,0,19.3,0.2c0.5-0.1,1.1-0.4,1-1c0-0.4-0.4-0.6-0.7-0.7c-2.9-0.2-5.3-0.2-8.1,0
	c-2.6,0.2-5.3-0.4-7.9-0.1c-1.1-0.3-3,0-3.3-1.7c-0.1-3.3-0.4-6.1-0.5-9.5c0.4-8.3,0-17,0.1-25.6l0.2-5.3
	C64.2,54.2,66.4,52.2,64.1,52.2L64.1,52.2z M203.1,54.2V60c1.5,0.7,3,0.8,3,0.8C206.3,59,204.5,56.2,203.1,54.2L203.1,54.2z
	 M44.5,54.9c-1.4,1.9-2.8,4.4-2.6,6.1c0,0,1.3-0.1,2.6-0.7C44.5,60.4,44.5,54.9,44.5,54.9z M211.4,58.4c-0.3,0-0.6,0.2-0.6,0.2
	c0.3,2.2-0.9,1.8-0.9,1.8c-2.1-0.2-1.8,0.8-1.8,0.8c1.6,1.9,6.5,10.5,6.5,10.5c2.8,5,1.1,4.6,1.1,4.6c-1-1.9-3-1.9-4.1-1.7
	c0.2,0.5,0.3,1.1,0.3,1.7c0,0,0,0,0,0.1c1.7,0.3,5.7,1.9,10.1,10.3c0.7,0.4,1.5,1.1,2.6,2.2c0.2-0.7,0.5-1.7,1-2.8
	c-6.2-7.6-2.8-13.2-2.8-13.2c0,0,0,0,0,0c-0.1-0.1-0.2-0.2-0.3-0.3l1.3-1.3c0,0,0.1,0.1,0.1,0.1c0.1-0.6-0.1-1-0.1-1
	c-1.8-2-2.5,0.4-2.5,0.4c-0.6,2.6-2.1,1.5-2.1,1.5c-3.8-5.7-6.9-13.1-6.9-13.1C212.1,58.5,211.7,58.4,211.4,58.4L211.4,58.4z
	 M36.6,58.6c-0.3,0-0.7,0.1-0.9,0.6c0,0-3.1,7.4-6.9,13.1c0,0-1.6,1.1-2.1-1.5c0,0-0.7-2.5-2.5-0.4c0,0-0.7,1.6,1,2.5
	c0,0,3.4,5.6-2.8,13.2c0.5,1.1,0.8,2.1,1,2.8c1.1-1.1,2-1.7,2.6-2.2c4.3-8.3,8.3-10,10.1-10.3c0,0,0,0,0-0.1c0-0.6,0.1-1.2,0.3-1.7
	c-1.1-0.2-3.1-0.3-4.1,1.7c0,0-1.7,0.4,1.1-4.6c0,0,4.9-8.6,6.5-10.5c0,0,0.3-1-1.8-0.8c0,0-1.2,0.4-0.9-1.8
	C37.2,58.8,36.9,58.6,36.6,58.6L36.6,58.6z M203.1,61.9v2c0.1-0.8,1.3-1.6,1.3-1.6C203.9,62.2,203.5,62,203.1,61.9L203.1,61.9z
	 M44.5,62.2c-0.3,0.1-0.6,0.2-0.9,0.3c0,0,0.5,0.4,0.9,0.8V62.2L44.5,62.2z M206.3,63.6c-1.5,0.1-3.1,1-3.1,1
	c-0.1-0.1-0.1-0.2-0.1-0.4v2.7c1.5-0.9,3.5-1.7,6.3-1.1c-0.5-0.6-0.8-1-0.8-1C208.1,63.8,207.2,63.5,206.3,63.6L206.3,63.6
	L206.3,63.6z M41.2,63.7c-0.8,0.1-1.5,0.4-1.9,1.2c0,0-0.3,0.4-0.8,1c2.5-0.5,4.5,0.1,5.9,0.9v-2.2C44,64.3,42.5,63.6,41.2,63.7
	L41.2,63.7z M20.8,64.8c-2,0-3.7,1.7-3.7,3.7c0,2,1.7,3.7,3.7,3.7c0.7,0,1.4-0.2,2-0.6c-0.3-0.8-0.8-2.9,1.5-4
	C23.9,66,22.5,64.8,20.8,64.8z M226.4,64.8c-0.1,0-0.2,0-0.3,0c-1.2,0.4-2.1,1.4-2.4,2.6c2.4,1.1,1.9,3.2,1.5,4
	c0.6,0.4,1.3,0.6,2,0.6c0.1,0,0.2,0,0.3,0c0.5-0.2,1-0.5,1.5-0.9c1.4-1.4,1.4-3.8,0-5.2C228.3,65.2,227.4,64.8,226.4,64.8
	L226.4,64.8z M235.8,72.1L235.8,72.1c-0.4,0-1,0.3-2.3,1.2c0,0-4.5,3.1-3.2,9.5c0.3,0.3,0.6,0.7,0.9,1.1c0,0,1.7,2.8,3,5.7
	c0.6-0.6,1.2-1.2,1.8-1.7c0.1-1.9,0.2-4.7-0.5-6.2c0,0-2.3-5.3,0.2-8.4C235.7,73.5,236.6,72.1,235.8,72.1L235.8,72.1z M12.2,72.3
	c-0.8,0,0.1,1.3,0.1,1.3c2.6,3.1,0.2,8.4,0.2,8.4c-0.7,1.5-0.7,4.3-0.5,6.2c0.6,0.5,1.2,1.1,1.8,1.7c1.3-2.9,3-5.7,3-5.7
	c0.3-0.5,0.6-0.9,0.9-1.1c1.3-6.3-3.2-9.5-3.2-9.5C13.2,72.6,12.5,72.3,12.2,72.3L12.2,72.3L12.2,72.3z M41,73.3
	c-1.7,0-3.1,1.4-3.1,3.1c0,1.7,1.4,3.1,3.1,3.1c1.7,0,3.1-1.4,3.1-3.1C44.1,74.7,42.7,73.3,41,73.3z M206.9,73.3
	c-1.3,0-2.3,0.7-2.8,1.8c-0.1,0.4-0.2,0.7-0.2,1.2c0,1.7,1.4,3.1,3.1,3.1c1.3,0,2.3-0.7,2.8-1.8c0.1-0.4,0.2-0.7,0.2-1.2
	C210.1,74.7,208.7,73.3,206.9,73.3z M36.4,78.4c-3.8-0.3-7,5.4-8.4,8.1c0.3,0.5,0.1,1.3,0.1,1.3c-0.2,0.3-0.3,0.7-0.4,1.1
	c3-4.1,8.4-7,10.8-8.1C37.7,80.2,36.9,79.4,36.4,78.4L36.4,78.4z M211,83.9c0,0,0,4.8-0.4,7c0,0,0.1,2.8,1.5,4.8
	c1.8,1.1,3.3,2.3,4.7,3.5c0.2-0.5,0.4-1.1,0.8-1.8c-0.8-3.1-4.2-8.3-4.2-8.3c-1-1.9-0.9-2.1-0.9-2.1c1.9,0.9,5.4,6.1,6.7,8
	c0-0.1,0.1-0.1,0.1-0.2c0,0,0.7-1.8,0.9-3.7C218.6,89,214.6,84.4,211,83.9L211,83.9z M36.9,84c-3.6,0.6-7.5,5.1-9.2,7.3
	c0.2,1.9,0.9,3.7,0.9,3.7c0,0.1,0.1,0.1,0.1,0.2c1.3-1.9,4.8-7.1,6.7-8c0,0,0.1,0.2-0.9,2.1c0,0-3.3,5.2-4.2,8.3
	c0.4,0.7,0.6,1.3,0.8,1.8c1.4-1.2,2.9-2.3,4.7-3.5c1.3-2.1,1.5-4.8,1.5-4.8C36.9,88.8,36.9,84,36.9,84L36.9,84z M229.1,84.6
	c-0.5,0-2.5,0.4-3.1,5.6c1,1.2,2.4,3.1,3.6,5.9c0.6-1.1,1.8-3.1,3.4-5c-0.6-1.9-2.3-6.4-3.8-6.4C229.3,84.6,229.2,84.6,229.1,84.6
	L229.1,84.6z M18.8,84.8c-0.1,0-0.1,0-0.1,0h0c-1.5,0.1-3.1,4.6-3.8,6.4c1.6,2,2.8,3.9,3.4,5c1.2-2.8,2.6-4.8,3.6-5.9
	C21.4,85.3,19.3,84.8,18.8,84.8L18.8,84.8z M221.6,88.5c-0.3,0.1-0.6,0.6-0.4,2.4c0,0,0.3,5.9-2,7.8c0,0-0.7,1-0.6,2.2
	c3.8,3.8,5.6,7.6,6.4,10.7c0.3-3,0.2-7.1-1.3-11.5c0,0,2.1,0.3,5.1,18.5c0,0,0.5,0.2,1.1-0.2c0.8-3.1,4.1-18.4-7.5-29.7
	C222.3,88.8,221.9,88.4,221.6,88.5L221.6,88.5z M26.4,88.6c-0.3-0.1-0.7,0.3-0.7,0.3c-11.7,11.3-8.4,26.5-7.5,29.7
	c0.6,0.4,1.1,0.2,1.1,0.2c3-18.2,5.1-18.5,5.1-18.5c-1.5,4.4-1.6,8.4-1.3,11.5c0.8-3.1,2.6-6.9,6.4-10.7c0.1-1.2-0.6-2.2-0.6-2.2
	c-2.3-1.9-2-7.8-2-7.8C27,89.2,26.7,88.7,26.4,88.6L26.4,88.6z M239,88.7c-0.3,0-0.8,0.4-1.8,1.3c0,0-5.1,4.6-6.5,8.9
	c0.6,1.7,1,3.7,1.3,5.9c0.9-4,3.1-6.9,3.1-6.9c-1.1,1.6-1.2,5.8-1.2,5.8c0.2,1.3-0.9,3.7-1.6,4.9c0.1,2.5,0,5.1-0.5,8.1
	c2.4-2.1,8.4-8.3,7.5-18.1c0,0-2.1-7-0.1-9.3C239.3,89.3,239.5,88.6,239,88.7L239,88.7z M9,88.8c-0.5-0.1-0.3,0.7-0.3,0.7
	c2,2.2-0.1,9.3-0.1,9.3c-0.8,9.8,5.2,16,7.5,18.1c-0.4-2.9-0.6-5.6-0.5-8.1c-0.6-1.2-1.7-3.6-1.6-4.9c0,0-0.1-4.2-1.2-5.8
	c0,0,2.2,3,3.1,6.9c0.3-2.2,0.8-4.2,1.3-5.9c-1.4-4.3-6.5-8.9-6.5-8.9C9.8,89.2,9.3,88.9,9,88.8L9,88.8z M206.1,94.3
	c-0.7,0-0.6,0.8-0.6,0.8c1.3,0.9,4.2,7.9,4.2,7.9c1.8,12.4,8.2,15.6,10.6,16.3c-1.4-4.7-4.2-11.9-9-18c0,0,3.1,2.2,12.5,15.2
	c3-11-15.3-21.2-15.3-21.2C207.2,94.5,206.5,94.3,206.1,94.3L206.1,94.3L206.1,94.3z M41.9,94.5L41.9,94.5c-0.4,0-1.2,0.2-2.4,1.1
	c0,0-18.2,10.1-15.3,21.2c9.4-13,12.4-15.2,12.4-15.2c-4.8,6-7.6,13.2-9,18c2.5-0.7,8.9-3.9,10.7-16.3c0,0,2.8-7,4.2-7.9
	C42.5,95.3,42.6,94.5,41.9,94.5L41.9,94.5z M159.3,95.9c-0.5,0-0.9,0.3-1.1,0.8c-0.5,0.7-0.6,1.7-0.3,2.6c0.3,0.6,0.8,1.2,1.5,1.3
	c0.6-0.1,1.4,0.1,1.9-0.4c0.5-0.9,0.6-2.2-0.1-3C160.9,96.4,160.1,95.8,159.3,95.9L159.3,95.9z M88.7,96.3c-1,0.4-1.7,1.1-1.7,2.2
	c0.1,1-0.3,2.1,0.8,2.6c0.5,0.4,1.3,0.5,1.9,0.2c1.1-0.4,1.1-1.8,1.2-2.8C90.6,97.5,89.7,96.6,88.7,96.3L88.7,96.3z M203.2,101.1
	c-0.4,0-0.8,0.1-1.2,0.3c0,0-2.3-0.1,1.3,4.2c0,0,3.5,4,4,5.1c0,0,2,2.2,3.9,3.3c-1.4-2.8-2-5.4-2-5.4c-0.3-1.8-1.4-4.6-2.4-7
	C205.9,101.4,204.5,101,203.2,101.1L203.2,101.1z M46,101.2c0.1,0.7,0.2,1.3,0.3,2C46.2,102.5,46.1,101.9,46,101.2z M44.3,101.8
	c-1.2-0.1-2.6,0.2-3.6,0.6c-1,2.4-2.1,5.2-2.4,7c0,0-0.6,2.6-2,5.4c1.9-1.1,3.9-3.3,3.9-3.3c0.6-1.1,4-5.1,4-5.1
	c3.6-4.4,1.3-4.2,1.3-4.2C45.1,101.9,44.7,101.8,44.3,101.8L44.3,101.8z M242.6,106.6c-1.1,0-2.3,0.2-3,0.3c-1.1,4-3.3,8.9-7.9,12.8
	c0,0.8,0.1,1.7,0.1,2.7c4.5,0,7.9-5.6,7.9-5.6c1.7-3.6,4.1-7.3,4.1-7.3c3.5-1.9,1.2-2.7,1.2-2.7c-0.4-0.1-0.8-0.2-1.3-0.2
	C243.4,106.6,243,106.6,242.6,106.6L242.6,106.6z M5.3,106.7c-0.4,0-0.8,0-1.1,0c-0.5,0-0.9,0.1-1.3,0.2c0,0-2.2,0.8,1.2,2.7
	c0,0,2.5,3.7,4.1,7.3c0,0,3.4,5.7,7.9,5.6c0-0.9,0-1.8,0.1-2.7c-4.6-3.9-6.9-8.8-7.9-12.8C7.6,106.9,6.5,106.8,5.3,106.7L5.3,106.7z
	 M225.8,111.2c0,0,0.3,10.7-1.5,11.2c0,0-1-2.8-2.4-5.5c0,0,2.1,7,2.1,12.7c0,0-1-0.1-1.5-1.9c0,0-2.9-3.7-5.4-4.6
	c0,1.1-0.4,2.1-1,2.9c2.7,1,4.6,2.6,5.7,4.8c1.7,3.3,1,7,0.5,9c0.7,1.2,2.1,3.6,3,7c0.4-0.4,0.7-0.8,1.1-1.2
	c0.6-7.2,5-10.3,7.5-11.4c-0.2-0.6-0.4-1.3-0.4-2c0-0.1,0-0.1,0-0.2c-1.4,0.5-3.3,1.4-4.9,2.9c0,0-1.2-0.7,1.8-14.2
	c0,0-1.5,2.5-2.5,3C227.8,123.7,226.2,120.5,225.8,111.2L225.8,111.2z M22.2,111.4c-0.4,9.2-2.1,12.5-2.1,12.5c-1-0.4-2.5-3-2.5-3
	c3,13.4,1.8,14.2,1.8,14.2c-1.9-1.9-4.4-2.8-5.7-3.2c0,0.1,0,0.2,0,0.3c0,0.7-0.1,1.3-0.3,1.9c2.1,0.8,7.5,3.8,8.2,11.8
	c0.4,0.4,0.8,0.7,1.1,1.2c0.9-3.4,2.3-5.9,3-7c-0.5-2-1.2-5.7,0.5-9c1.1-2.2,3-3.8,5.7-4.8c-0.6-0.8-0.9-1.8-1-2.9
	c-2.5,0.9-5.4,4.6-5.4,4.6c-0.4,1.8-1.5,1.9-1.5,1.9c0-5.7,2.1-12.7,2.1-12.7c-1.3,2.7-2.4,5.5-2.4,5.5
	C21.9,122.1,22.2,111.4,22.2,111.4L22.2,111.4z M36.5,119.2c-2.1,0-3.8,1.7-3.8,3.8c0,2.1,1.7,3.8,3.8,3.8c2.1,0,3.8-1.7,3.8-3.8
	C40.3,120.9,38.6,119.2,36.5,119.2z M210.8,119.2c-0.2,0-0.4,0-0.6,0.1c-1.5,0.5-2.5,1.9-2.5,3.6c0,2.1,1.7,3.8,3.8,3.8
	c0.2,0,0.4,0,0.6-0.1c1.5-0.5,2.5-1.9,2.5-3.6C214.6,120.9,212.9,119.2,210.8,119.2L210.8,119.2z M153.4,121.3c-0.3,0-0.7,0.1-1,0.3
	c-1.3,0.8,0.5,1.7,0.5,2.7c-0.1,7.9,0.4,16.3,0,24.2c0,5.5,0.3,11.6-0.2,17.2c-0.3,0.9-1.4,1.3-2.3,1.4c-7.5,0.7-15.4,0.2-23,0.5
	l-0.9,0.4c-0.5,0.5,0.1,1.1,0.5,1.4c7.6,0.4,14.8-0.2,22.5,0c1.7-0.5,4,0.5,5.3-1.1c0-2.5,0.4-5.1,0.8-7.5c1.1-2.2,4.5,0,5.9-1.9
	c0.3-0.5,0.4-1.2,0-1.6c-1.7-1.5-4.7,0-6.2-1.8c-0.8-2.7-0.2-6.6-0.3-9.8c0.3-3.7-0.2-6.9,0.1-10.7c0.8-3,4.4-0.9,6.1-2.6
	c0.1-0.5,0.3-1.1-0.1-1.6c-1.6-0.8-3.8-0.3-5.3-1.1c-1.1-1.8-0.8-4.4-0.7-6.5C155.2,122,154.4,121.3,153.4,121.3L153.4,121.3z
	 M93.4,121.7c-0.7,0.1-1.4,0.5-1.7,1c-0.2,2-0.5,3.8-0.3,5.8c-0.7,2.9-4,1.7-6.1,2.3c-0.6,0.2-1.1,0.8-1.1,1.5
	c1,2.5,3.9,0.8,5.8,1.5c1.8,1.1,1.3,3.4,1.4,5.2c-0.1,4.9,0,9.8-0.1,15c-0.1,0.8,0,2-0.8,2.6c-2,0.6-4.5-0.2-6.1,1.4
	c-0.3,0.4,0,1.1,0.4,1.3c1.8,1.2,4.9-0.2,6.3,1.9c0.8,2.3,0.2,4.7,0.6,7.3c0.2,0.4,0.7,1,1.3,1.1c3.9,0.3,7.8-0.3,11.6-0.3
	c3.2,0.6,6.2-0.3,9.3,0c1.5-0.3,3.1,0,4.5-0.5c0.5-0.4,0-1-0.2-1.3l-8.2-0.1c-5.4-0.5-10.8,0.2-15.9,0.1l-0.7-0.6
	c-0.3-3.3-0.2-6-0.5-9.4c0-1.5,0.3-3.5,0-4.9c0.4-3.2,0.2-6,0.2-9.3c0.1-5.8-0.4-12.3,0-18.2c0.2-1,1.2-1.6,1.2-2.6
	c0-0.6-0.4-0.9-0.8-0.9C93.6,121.7,93.5,121.7,93.4,121.7L93.4,121.7z M8.1,128.4c-2.1,0-3.8,1.7-3.8,3.8c0,2.1,1.7,3.8,3.8,3.8
	c2.1,0,3.8-1.7,3.8-3.8C11.9,130.1,10.2,128.4,8.1,128.4z M239.1,128.4c-0.1,0-0.2,0-0.3,0c-1.5,0.5-2.6,1.9-2.6,3.6
	c0,2.1,1.7,3.8,3.8,3.8c0.1,0,0.2,0,0.3,0c1.5-0.5,2.6-1.9,2.6-3.6C242.9,130.1,241.1,128.4,239.1,128.4L239.1,128.4z M215.9,135.9
	c0,0-0.1,0-0.2,0c-0.3,0.1-0.7,0.6-1.4,1.8c0,0-2,2.3-2.2,6.1c0.7,1.8,1.7,4.9,1.6,9.4c0.7-0.8,1.5-1.8,2.3-2.7c0,0,1-1.4,1.8-3.4
	c-0.6-2.4-1.8-7.8-1.6-10.4C216.2,136.6,216.2,136,215.9,135.9L215.9,135.9z M32.1,136.1c-0.3,0-0.3,0.7-0.3,0.7
	c0.2,2.7-1,8-1.6,10.4c0.8,2,1.8,3.4,1.8,3.4c0.8,0.9,1.6,1.8,2.3,2.7c0-4.4,0.9-7.5,1.6-9.4c-0.2-3.8-2.2-6.1-2.2-6.1
	c-0.7-1.2-1.2-1.7-1.4-1.8C32.2,136.1,32.1,136.1,32.1,136.1L32.1,136.1z M204.6,136.6c-0.2,0.1-0.4,0.7-0.1,3.8
	c0,0-0.5,4.1-1.6,6.4c1.5,1.8,2.9,4.2,4,7.3c0,0,1.2-6.5-0.8-9.2c0,0,2.7-0.4,3.6,13c0,0,1.1-1.4,2.8-3.4
	c-0.2-3.7-1.3-14.9-7.6-17.9C204.9,136.7,204.8,136.5,204.6,136.6L204.6,136.6z M43.3,136.8c-0.1,0-0.3,0.1-0.3,0.1
	c-6.3,3-7.4,14.2-7.6,17.9c1.7,2,2.8,3.4,2.8,3.4c0.9-13.5,3.6-13,3.6-13c-2,2.7-0.8,9.2-0.8,9.2c1.1-3.1,2.5-5.5,4-7.3
	c-1.1-2.3-1.6-6.4-1.6-6.4C43.8,137.5,43.5,136.8,43.3,136.8L43.3,136.8z M220.8,141.1c-0.4,0-0.7,0.6-1,2.6c0,0-0.7,7.5-6.5,12.3
	c0,0-4.2,4.8-3.9,11.4c0,0-2.5,1.9-2.2-5c0,0-3-16.2-10.4-19.3c0,0-0.9,15.3-0.1,20.1c3.3,0,6.3,2.1,7.8,3.7l16,15.3
	c2.3-0.7,7.7-3,9.3-8.4c0,0,4.7-5.7,9.1-7.9c0,0-9.8-4.2-22.6,7.2c0,0-2.3,1.6-1.1-1.6c0,0,3.4-5.3,2.5-7.9c0,0-2,1.2-4.2,8.3
	c0,0,0,1.1-0.9,0.3c0,0,0.2-6.1,4-10.6c0,0,3.4-4.1,2.3-9.4c0,0,1.3-1.5,2,1.9c0,0,0,10.2-3.7,16.3c0,0,1.2-2,4.5-3.8
	c1.6-3.2,4.9-12,0.4-23.6C222.1,142.9,221.4,141.1,220.8,141.1L220.8,141.1L220.8,141.1z M27.2,141.3L27.2,141.3
	c-0.6,0-1.3,1.7-1.3,1.7c-4.5,11.5-1.2,20.3,0.4,23.6c3.3,1.8,4.5,3.8,4.5,3.8c-3.7-6.1-3.7-16.3-3.7-16.3c0.7-3.4,2-1.9,2-1.9
	c-1,5.3,2.3,9.4,2.3,9.4c3.8,4.5,4,10.6,4,10.6c-0.9,0.8-0.9-0.3-0.9-0.3c-2.2-7-4.2-8.3-4.2-8.3c-0.9,2.7,2.5,7.9,2.5,7.9
	c1.2,3.1-1.1,1.6-1.1,1.6c-12.7-11.4-22.6-7.2-22.6-7.2c4.4,2.2,9.1,7.9,9.1,7.9c1.5,5.2,6.6,7.5,9,8.3l19-17.9l0.1-0.1
	c0.2-0.1,2.5-1.1,5-1.2c0.7-5-0.1-19.8-0.1-19.8c-7.4,3.1-10.4,19.3-10.4,19.3c0.2,6.9-2.2,5-2.2,5c0.3-6.6-3.9-11.4-3.9-11.4
	c-5.8-4.8-6.5-12.3-6.5-12.3C27.9,141.9,27.5,141.3,27.2,141.3L27.2,141.3z M235,142.7c-3,0.5-5.3,2.1-6.9,3.7c0,0,0,0.1,0,0.1
	l-0.1,0c-1.1,1.1-1.8,2.2-2.3,2.9c0.2,1.2,0.3,2.4,0.4,3.7c2.9-3.5,3-1.8,3-1.8c-1.2,0.6-2.3,3-3.1,5c-0.3,2.9-1,6.1-2.5,9.4
	c1.5-0.6,3.2-1.1,5.3-1.4c2.3-2.3,2.7-5.9,2.7-5.9c1.5-9.5,3.3-12.5,3.3-12.5C236.4,143,235,142.7,235,142.7L235,142.7z M13,142.9
	c0,0-1.4,0.2,0.2,3c0,0,1.8,3.1,3.3,12.5c0,0,0.4,3.6,2.7,5.9c2.1,0.3,3.8,0.8,5.3,1.4c-1.5-3.3-2.3-6.5-2.5-9.4
	c-0.7-2-1.8-4.4-3.1-5c0,0,0.1-1.7,3,1.8c0-1.3,0.2-2.6,0.4-3.7c-0.4-0.7-1.2-1.8-2.3-2.9l-0.1,0c0,0,0,0,0-0.1
	C18.3,145,16,143.5,13,142.9L13,142.9z M198.3,149.3c0.1,0,0.3,0.1,0.6,0.4c0,0,2.5,0.1,5.5,11.2c0,0,0.7,4-0.2,4.1
	c0,0-1.2-0.2-1-3.5c0,0-1-1.9-1,2c0,0-1.5,0.8-1.5-1.5c0,0,0.9-8.2-1.8-11.1C198.9,151,198,149.4,198.3,149.3
	C198.2,149.3,198.2,149.3,198.3,149.3L198.3,149.3z M241.6,149.3c-0.3,0-0.7,0.1-1.4,0.7c0,0-3.5,2.7-6.1,2
	c-0.8,3.5-0.9,6.7-0.9,6.7c1.7-2,2.2-1.6,2.2-1.6c0.2,2-3.1,5.7-4.1,6.7c1-0.1,2.1-0.1,3.3-0.1c1.5-1.3,6.7-6.6,7.3-13.7
	C242,150,242,149.4,241.6,149.3L241.6,149.3z M49.7,149.4C49.7,149.4,49.8,149.4,49.7,149.4c0.3,0.2-0.6,1.8-0.6,1.8
	c-2.7,2.9-1.8,11.1-1.8,11.1c0,2.2-1.5,1.5-1.5,1.5c0-3.9-1-2-1-2c0.2,3.2-1,3.5-1,3.5c-0.9-0.1-0.2-4.1-0.2-4.1
	c3-11.1,5.5-11.2,5.5-11.2C49.4,149.6,49.6,149.4,49.7,149.4L49.7,149.4z M6.4,149.5c-0.4,0.1-0.4,0.7-0.4,0.7
	c0.7,7.2,5.9,12.4,7.3,13.7c1.2,0,2.3,0,3.3,0.1c-0.9-1-4.3-4.7-4.1-6.7c0,0,0.5-0.4,2.2,1.6c0,0-0.1-3.2-0.9-6.7
	c-2.6,0.8-6.1-2-6.1-2C7.1,149.6,6.6,149.4,6.4,149.5L6.4,149.5z M63.3,160.6c-1.9,0-3.5,1.6-3.5,3.5c0,1.9,1.6,3.5,3.5,3.5
	c1.9,0,3.5-1.6,3.5-3.5C66.8,162.1,65.2,160.6,63.3,160.6z M184.2,160.6c-1.9,0-3.5,1.6-3.5,3.5c0,1.9,1.6,3.5,3.5,3.5
	c1.9,0,3.5-1.6,3.5-3.5C187.8,162.1,186.2,160.6,184.2,160.6z M200,165.7c0.4,0.2,0.7,0.4,1,0.6C200.7,166.1,200.3,165.9,200,165.7z
	 M123.1,166.3c-0.1,0-0.2,0-0.3,0c-0.7,0.1-1,0.6-1.5,1c-0.2,0.9-0.7,2,0,2.8c0.2,0.7,0.9,1.4,1.6,1.4c0.7,0,1.4-0.1,1.7-0.7
	c-0.1-1.2,0.5-2.3-0.1-3.3C124.3,167,123.8,166.3,123.1,166.3L123.1,166.3z M59.1,167.4c-0.2,0.5-0.4,1.8-0.2,4.5
	c0.4,0,0.7,0.1,1,0.2c-0.1-1.1-0.1-2.5,0.4-3.6C59.8,168.2,59.4,167.8,59.1,167.4L59.1,167.4z M188.2,167.6c-0.5,0.5-1,0.9-1.6,1.2
	c0.6,1,0.4,2.6,0.2,3.6c0.5-0.1,1-0.2,1.6-0.2C188.6,169.6,188.4,168.2,188.2,167.6L188.2,167.6z M227,170.4c0.7,0,0.9,0.4,0.9,0.4
	c-3,1.5-8.6,8-8.6,8c-1.1-0.4-0.8-2.3-0.8-2.3C223.3,171.3,225.8,170.4,227,170.4L227,170.4z M21,170.6c1.2,0,3.6,0.9,8.4,6.1
	c0,0,0.3,1.9-0.8,2.3c0,0-5.6-6.6-8.6-8C20.1,171,20.3,170.6,21,170.6L21,170.6z M167.2,179.4c-0.4,0-1,0.4-2,1.6
	c0,0-3.8,4.4-5.1,7.7c0.1,1.4,0.2,3.1,0.1,5c1.8-0.5,2.7-3.7,2.7-3.7c0.8-3.5,1.6-3.4,1.6-3.4c0.4,1.5-0.3,3.2-0.3,3.2
	c-1,1.3-1.6,8-1.6,8l-1.6,0.9c3.2-1.5,6-3.1,8.1-4.4l-1.5,0.8c0,0,1.2-6.1-0.9-9.8c0,0-0.2-2.2,0.8-4.2
	C167.4,181.1,168,179.3,167.2,179.4L167.2,179.4L167.2,179.4z M80.1,179.5c-0.8-0.1-0.3,1.7-0.3,1.7c1,2,0.8,4.2,0.8,4.2
	c-1.6,2.8-1.3,6.9-1.1,8.8c1.7,1,3.5,2,5.2,2.9c-0.2-1.8-0.8-6.2-1.6-7.3c0,0-0.8-1.8-0.3-3.2c0,0,0.9-0.1,1.7,3.4
	c0,0,0.9,3.2,2.8,3.7c-0.1-1.8,0-3.6,0.1-5c-1.4-3.4-5.2-7.7-5.2-7.7C81.1,179.9,80.5,179.5,80.1,179.5L80.1,179.5z M173.6,185.3
	c-1.9-0.1-3.6,1.8-4.5,3.2c0.1,0.8,0.2,1.6,0.4,2c0,0,0.8,1,0.7,3.2c1.4-0.9,2.4-1.6,3.2-2.2c-0.9-1.2,0.2-4.2,0.2-4.2
	C174.8,185.3,173.6,185.3,173.6,185.3L173.6,185.3z M73.6,185.4c0,0-1.2,0,0,1.9c0,0,0.7,2,0.5,3.4c1,0.7,2,1.3,2.9,1.9
	c0.1-1.4,0.7-2.1,0.7-2.1c0.2-0.4,0.4-1.1,0.5-2C77.2,187.2,75.5,185.3,73.6,185.4L73.6,185.4z M157.1,186.5c-0.3,0-0.6,0.3-1,1.4
	c0,0-5.1,7.4-8.4,10.2c0,0-2.3,2.7-1.5,6.2c1.2-0.3,2.3-0.7,3.5-1c0.4-4.1,3.8-8.7,3.8-8.7c3.1-4,2.8-1.8,2.8-1.8
	c-2.1,1.9-1.7,7.8-1.7,8.7c0.9-0.3,1.7-0.7,2.6-1c0.7-1.7,3.2-8.5,0.7-13C158,187.3,157.6,186.5,157.1,186.5L157.1,186.5z
	 M90.4,186.6c-0.5,0-0.9,0.8-0.9,0.8c-2.2,3.9-0.5,9.7,0.4,12.2c1,0.5,2,0.9,3,1.3c0.1-1.8,0.2-6.5-1.7-8.1c0,0-0.2-2.2,2.9,1.8
	c0,0,3.2,4.3,3.8,8.2c1.2,0.4,2.5,0.8,3.7,1.2c0.6-3.3-1.6-5.8-1.6-5.8c-3.4-2.8-8.6-10.2-8.6-10.2C91,187,90.7,186.6,90.4,186.6
	L90.4,186.6z M174.6,190.5l-1.1,0.9C174,191,174.4,190.7,174.6,190.5L174.6,190.5L174.6,190.5z M161.3,195.5
	c-0.2,0.4-0.9,0.4-1.3,0.4c-0.1,1.3-0.3,2.5-0.6,3.6c0.4-0.2,0.8-0.4,1.2-0.6C161.6,197.5,161.3,195.5,161.3,195.5L161.3,195.5z
	 M86.1,195.6c0,0-0.2,1.2,0.2,2.3c0.5,0.3,1.1,0.5,1.6,0.8c-0.2-0.9-0.3-1.8-0.4-2.7C87,196,86.3,196,86.1,195.6L86.1,195.6z
	 M141.7,199.7c-0.1,0-0.2,0-0.3,0c-1.7,0.3-1.5,5.9-1.5,5.9c0,0.1,0,0.1-0.1,0.2c1.5-0.3,2.9-0.6,4.3-1c-0.1-3.4-1.3-4.3-1.3-4.3
	C142.4,199.9,142.1,199.7,141.7,199.7L141.7,199.7z M106.3,199.7c-0.4,0-0.8,0.2-1.4,0.7c0,0-1.2,0.9-1.3,4c1.5,0.4,2.9,0.7,4.3,1
	C107.9,204.8,107.9,199.9,106.3,199.7L106.3,199.7L106.3,199.7z M152.8,200.3c-0.9,0.7-1.6,2.1-1.8,2.5c0.5-0.2,1.1-0.4,1.6-0.6
	C152.4,201.4,152.8,200.3,152.8,200.3L152.8,200.3z M94.8,200.4c0,0,0.2,0.7,0.2,1.4c0.4,0.2,0.8,0.3,1.3,0.5
	C96,201.7,95.4,200.8,94.8,200.4L94.8,200.4z M38.7,200.7c-2,0-4.8,0.5-7,2.2c0,0-0.6,0.6,3.1,1.2c0,0,3.6,1.1,4.9,2.9
	c-0.1-0.9-0.2-2.2,0.1-3.2c0-0.2,0.1-0.3,0.2-0.5c-0.8-0.1-1.5,0.2-1.5,0.2c-1.8-0.2-0.1-1.2-0.1-1.2c1-0.1,1.7,0,2,0.2
	c0.5-1,1.1-1.6,1.1-1.6s-0.8-0.2-2.1-0.2C39.2,200.7,39,200.7,38.7,200.7L38.7,200.7z M209.2,200.7c-0.3,0-0.6,0-0.8,0
	c-1.2,0-2.1,0.2-2.1,0.2s0.6,0.6,1.1,1.6c0.4-0.2,1-0.3,2.1-0.2c0,0,1.7,1-0.1,1.2c0,0-0.7-0.3-1.6-0.2c0.1,0.2,0.1,0.3,0.2,0.5
	c0.3,1,0.2,2.4,0.1,3.2c1.4-1.8,5-3,5-3c3.7-0.7,3.2-1.2,3.2-1.2C214,201.2,211.2,200.8,209.2,200.7L209.2,200.7z"/>
<path fill="#101820" d="M149.9,62.4c-1.5,0-3,0.2-4.5,0c-0.4,0.1-0.8,0.5-0.8,0.9c0,0.6,0.7,0.7,1.1,1.1c0.8,1.3,0.6,3,0.6,4.4
	c-0.1,3.5-0.2,6.4-0.1,9.7c-0.2,1-2,1.5-1,2.7l4.1,0.1c2.1-0.8-0.7-1.9-0.5-3.2c-0.1-1.4-0.2-2.9,0.3-4.3c0.3-0.1,0.7-0.1,0.9,0.2
	c0.9,2,2.3,3.8,3.5,5.7c0.5,0.8,1.3,1.5,2.3,1.4c0.4-0.2,1-0.5,0.8-1.1c-1.9-1.5-2.3-3.9-3.9-5.7c-0.3-0.6-0.1-1,0-1.6
	c1.3-1,2.7-2.3,3.3-3.8c0.2-1.2,0-2.4-0.2-3.5c-0.6-1.8-2.6-2.7-4.4-3.1C150.9,62.4,150.4,62.4,149.9,62.4L149.9,62.4z M168.9,62.4
	c-1.2,0.4-2.9-0.3-4,0.5c-0.4,0.9,0.4,1.6,0.7,2.4c-0.1,4.4,0.6,8.9-0.1,13.4c-0.2,0.7-1.2,1.1-1.3,1.8c-0.2,0.3,0.2,0.7,0.5,0.8
	c1.5,0,2.9-0.1,4.3,0.1c1.8-0.8-0.3-1.9-0.4-2.9c0.1-4.6-0.3-8.7,0.1-13.1c0.4-0.8,1.4-1.4,1.2-2.4
	C169.8,62.5,169.3,62.5,168.9,62.4L168.9,62.4z M74.6,62.6c-1,0.4-3-0.3-3.1,1.1c0,0.6,0.7,0.7,1,1.1c1.8,2.5,2.2,5.4,3.4,8
	c0.6,1.3,0.6,2.9,1.4,4.1c0.3,1.6,0.6,3.6,2.2,4.2c0.6,0,0.9-0.5,1.2-0.9c1.6-5,2.7-10.3,4.3-15.2c0.2-0.4,0.8-0.8,0.6-1.4
	c-0.6-0.7-1.5-0.7-2.4-0.7c-0.5,0.2-1.2,0.4-1.1,1.2c1.8,2.5-0.2,5.5-0.5,8.1c-0.4,1.1-0.2,3-1.6,3.2c-0.9-1-1-2.4-1.4-3.5
	c-0.9-1.8-1.3-3.8-1.9-5.8c0-0.9,0.7-1.4,0.9-2.2C77.2,62.5,75.6,62.7,74.6,62.6L74.6,62.6z M98.6,62.6c-2.3,0.2-4.9,0.1-7.2,0.6
	c-0.8,1,0.8,1.6,1.1,2.6c0.1,4.1,0,8.1-0.1,12.3c0,1.1-1.9,2.2-0.4,3.1c2.2,0.1,4.2,0.3,6.2,0.4c1.2,0.1,2.6,0.2,3.3-1
	c0.4-0.7,0.9-1.7,0.4-2.5c0-0.5-0.6-1-1-0.8c-0.6,0.9-0.8,1.9-1.9,2.3c-1.2,0-3.1,0.7-3.9-0.5c-0.1-2.2-1-5.4,0.3-7.1
	c1.6-1.1,2.9,2,4,0.1c0.4-0.8,0.3-1.9-0.3-2.8c-1.2,0.1-1.8,1.8-3.3,1.1c-1.5-0.9-0.7-3.3-0.8-4.8c0.2-0.8,0.9-1.3,1.8-1.3
	c1.3-0.1,1.9,1.4,3.1,1.8c0.7-0.2,0.7-1,0.6-1.5C99.9,64,100,62.5,98.6,62.6L98.6,62.6z M150.5,64c1.4-0.1,2.4,1.1,2.7,2.4
	c0.6,1.1,0.3,2.4-0.2,3.5c-0.7,0.9-1.7,1.8-2.9,1.7c-2.5-0.3-0.9-3.3-1.2-4.7c0.1-0.9-0.2-2.4,0.9-2.7C150.1,64.1,150.3,64,150.5,64
	L150.5,64z M114.7,131c-1.5,1.3-3.6,0.9-5.5,0.8c-1.1,0.2-2.6,0.3-3.5-0.5c-0.5-0.3-1.2-0.2-1.4,0.3c-0.3,1.3-1.3,2.6-0.7,4
	c0.3,0.4,0.7,0.3,1,0.1c0.4-1.1,1.4-1.9,2.6-2.2c0.5,0.1,1.1,0.6,1.4,1l-0.3,5c0.1,2.5-0.1,5.1,0.1,7.5c0.5,1.6-2.3,2.3-1,4
	c0.5,0.2,1.3,0.3,1.8,0c1.1,0,2.5,0.5,3.3-0.4c0.6-0.9-0.5-1.4-0.8-2.1c-0.1-3.1-0.1-6.6-0.3-9.8c0.5-1.5-0.6-3.4,0.4-4.6
	c1.5-0.8,1.5,1.5,3,1.3c1.1-0.6,0.6-2.3,1.1-3.4C115.9,131.4,115.2,131,114.7,131L114.7,131z M140.5,131.9c-0.5,0-1,0.2-1.4,0.5
	c-2-0.2-4.3-0.1-5.4,1.7c-0.7,1.3-1.2,2.8-0.7,4.3c1.4,3.6,6.2,3.9,7.5,7.5c0.1,1.1-0.3,2.3-1.3,2.9c-1.3,0.2-2.8,0.2-3.7-0.9
	c-1.2-0.6-0.6-2.4-2.1-2.4c-1.5,0.7-0.4,2.8-0.7,4.2c0.1,0.3,0.2,0.8,0.7,0.7c1.5-1.3,2.9,0.6,4.5,0.5c1.4-0.2,2.9-0.5,3.9-1.7
	c1-1.1,1.3-2.9,1.2-4.3c-0.7-4.3-5.7-4.5-7.8-7.8c-0.4-0.7-0.3-1.5,0.1-2.2c0.9-1,2.3-0.3,3.4-0.2c0.9,0.5,1.3,2.4,2.6,1.6
	c0.4-1,0.3-2.4,0-3.4C141.4,132.1,141,131.9,140.5,131.9L140.5,131.9z M66.5,194c-0.1,0-0.2,0-0.2,0.1c-0.1,0.2,0,0.3,0.2,0.4
	c0.3,0.2,0.6,0.4,0.8,0.6c0.6,0.6,0.5,1.1,0,1.9c-0.4,0.8-0.9,1.5-3.1,5.3l-2.6,4.4c-1.4,2.3-2.6,4.2-3.3,5.2c-0.5,0.7-1,1.1-1.4,1
	c-0.2-0.1-0.5-0.2-0.8-0.4c-0.2-0.2-0.4-0.1-0.5,0c-0.1,0.2,0,0.3,0.3,0.5c0.8,0.5,2.2,1.2,2.6,1.5c0.6,0.4,1.8,1.2,3.2,2
	c0.2,0.2,0.5,0.2,0.6,0c0.1-0.1,0-0.3-0.2-0.4c-0.3-0.2-0.7-0.5-1-0.7c-0.6-0.5-0.4-1.1,0-1.8c0.5-1.1,1.7-3.1,3.1-5.4l1.3-2.2
	c0.1-0.1,0.2-0.1,0.2-0.1l7.9,4.8c0.1,0,0.1,0.1,0,0.2l-1.3,2.2c-1.4,2.3-2.6,4.2-3.3,5.2c-0.5,0.7-1,1.1-1.4,1
	c-0.2-0.1-0.5-0.2-0.8-0.4c-0.2-0.1-0.4-0.1-0.4,0c-0.1,0.2,0,0.3,0.3,0.5c0.8,0.5,2.1,1.2,2.6,1.5c0.6,0.3,1.8,1.2,3.2,2
	c0.2,0.2,0.5,0.2,0.6,0c0.1-0.1,0-0.3-0.2-0.4c-0.3-0.2-0.7-0.5-1-0.7c-0.6-0.5-0.3-1.1,0-1.8c0.5-1.1,1.7-3.1,3.1-5.4l2.6-4.3
	c2.3-3.8,2.7-4.5,3.2-5.2c0.6-0.8,1-1.2,1.6-0.9c0.3,0.1,0.5,0.2,0.6,0.3c0.2,0.2,0.4,0.2,0.5,0c0.1-0.2,0-0.3-0.3-0.5
	c-0.8-0.5-2.1-1.2-2.6-1.5c-0.6-0.3-1.8-1.2-2.9-1.9c-0.3-0.2-0.5-0.2-0.6,0c-0.1,0.2,0,0.3,0.2,0.4c0.3,0.2,0.6,0.4,0.8,0.6
	c0.6,0.6,0.5,1.1,0,1.9c-0.4,0.8-0.9,1.5-3.1,5.3l-0.3,0.5c-0.1,0.1-0.2,0.1-0.2,0.1l-7.9-4.8c-0.1,0-0.1-0.1,0-0.3l0.3-0.5
	c2.3-3.8,2.7-4.5,3.2-5.2c0.6-0.8,1-1.2,1.6-0.9c0.3,0.1,0.5,0.2,0.6,0.3c0.2,0.2,0.4,0.2,0.5,0c0.1-0.2,0-0.3-0.3-0.5
	c-0.8-0.5-2.1-1.2-2.6-1.5c-0.6-0.3-1.8-1.2-2.9-1.9C66.7,194.1,66.6,194,66.5,194L66.5,194z M175.2,199.6c-2.8,0.1-5.2,1.6-7.1,2.8
	c-1.2,0.8-2.5,1.6-3.1,2c-0.6,0.4-1.9,1.1-3,1.8c-0.3,0.2-0.4,0.3-0.3,0.5c0.1,0.2,0.3,0.1,0.5,0c0.3-0.2,0.7-0.4,0.8-0.4
	c0.8-0.2,1.2,0,1.8,0.9c0.5,0.8,1,1.4,3.3,5.2l2.7,4.3c1.4,2.3,2.6,4.2,3.2,5.3c0.4,0.8,0.6,1.4,0.2,1.7c-0.2,0.2-0.4,0.4-0.7,0.6
	c-0.2,0.2-0.3,0.3-0.2,0.4c0.1,0.2,0.3,0.2,0.6,0c0.4-0.3,0.9-0.6,1.4-0.9c0.5-0.3,0.9-0.6,1.2-0.8c0.5-0.3,1.3-0.7,2.1-1.1
	c0.8-0.4,1.7-0.9,2.4-1.3c3.8-2.4,4.8-5.4,5.1-7.2c0.3-2.1-0.1-5.1-2-8.2c-1.8-2.9-4.1-4.4-5.9-5
	C177.1,199.7,176.2,199.6,175.2,199.6L175.2,199.6z M173.6,202.2c0.7,0,1.5,0.1,2.3,0.4c1.5,0.5,3.9,1.8,5.8,4.9
	c1.6,2.5,2.6,5,2.1,7.2c-0.4,2-1.5,3.4-3.6,4.7c-1.6,1-2.7,1-3.3,0.7c-0.3-0.2-1-1.1-1.4-1.7c-0.3-0.5-1.5-2.3-3.1-4.9l-1.9-3.1
	c-1.2-1.9-2.5-4.1-3-4.9c-0.2-0.3-0.2-0.4-0.1-0.6c0.1-0.2,0.8-0.7,1.2-1C169.7,203,171.5,202.1,173.6,202.2L173.6,202.2z M92,207
	c-0.2,0.1-0.4,0.3-0.9,0.8l-12.3,14.7c-1,1.2-1.8,1.9-2.9,1.7c-0.2,0-0.5-0.1-0.7-0.2c-0.2-0.1-0.3,0-0.4,0.1
	c-0.1,0.2,0,0.3,0.3,0.4c1.2,0.5,2.4,0.9,2.7,1c0.7,0.3,1.6,0.7,2.3,1c0.2,0.1,0.4,0.1,0.5-0.1c0.1-0.2,0-0.2-0.3-0.3l-0.3-0.1
	c-0.7-0.3-0.8-0.7-0.6-1.2c0.1-0.3,0.5-0.9,1-1.5l2.7-3.4c0.1-0.1,0.2-0.2,0.3-0.1l5,2c0.1,0,0.2,0.1,0.2,0.3l-0.4,6.4
	c0,0.4-0.3,0.5-0.4,0.5c-0.2-0.1-0.3,0-0.4,0.1c-0.1,0.2,0.2,0.3,0.6,0.5c1.8,0.8,3.4,1.4,4.2,1.7c0.8,0.3,1.1,0.4,1.1,0.1
	c0.1-0.2,0-0.3-0.2-0.3c-0.3-0.1-0.6-0.3-0.9-0.5c-0.4-0.3-0.9-1-0.8-3.7c0.2-4.7,0.9-17.1,0.9-18.8c0-0.7,0-1-0.2-1.1
	C92.1,206.9,92,206.9,92,207L92,207z M156.3,209c-1.2-0.1-2.3,0.2-3.4,0.6c-0.7,0.3-2.4,1-3.2,1.3c-0.5,0.2-1.9,0.6-3.1,1.1
	c-0.3,0.1-0.5,0.2-0.4,0.4c0.1,0.2,0.2,0.2,0.5,0.1c0.3-0.1,0.7-0.2,0.9-0.2c0.8-0.1,1.2,0.3,1.5,1.2c0.4,0.9,0.6,1.6,2.2,5.7
	l1.8,4.8c0.9,2.5,1.7,4.6,2,5.8c0.2,0.8,0.3,1.5-0.1,1.7c-0.2,0.1-0.4,0.3-0.8,0.4c-0.3,0.1-0.3,0.2-0.3,0.4
	c0.1,0.2,0.3,0.2,0.6,0.1c0.9-0.3,2.3-0.9,2.7-1.1c0.3-0.1,2-0.7,3.4-1.1c0.3-0.1,0.4-0.2,0.4-0.4c0-0.1-0.2-0.2-0.4-0.1
	c-0.3,0.1-0.8,0.2-1.1,0.3c-0.7,0.1-1.1-0.4-1.4-1.2c-0.5-1.1-1.3-3.2-2.2-5.8l-0.1-0.4c-0.1-0.2,0-0.2,0.1-0.3l2-0.7
	c0.2-0.1,0.3-0.1,0.5,0c0.4,0.3,2.2,1.8,3.6,2.9c2,1.6,3.4,2.6,4.6,2.9c0.7,0.2,1.3,0.1,2.6-0.4l2.2-0.8c0.3-0.1,0.4-0.2,0.3-0.4
	c0-0.1-0.2-0.2-0.4-0.1c-0.2,0.1-0.4,0.1-0.7,0.2c-0.4,0-1.4,0.2-3.2-0.9c-2-1.2-4.4-3-7.5-5.3c1.5-3.1,1.5-5.2,0.8-7.2
	c-0.7-1.8-2.1-2.9-2.9-3.2C157.1,209.1,156.7,209.1,156.3,209L156.3,209z M100.3,210.8c-0.1,0-0.1,0.1-0.2,0.2
	c0,0.2,0.1,0.3,0.3,0.3c0.3,0.1,0.7,0.2,0.9,0.3c0.7,0.4,0.8,0.9,0.7,1.8c-0.1,0.9-0.3,1.7-1.3,6l-1.1,5c-0.6,2.6-1,4.8-1.4,6
	c-0.3,0.8-0.5,1.4-1,1.4c-0.2,0-0.5,0-0.9-0.1c-0.3-0.1-0.4,0-0.4,0.1c0,0.2,0.1,0.3,0.4,0.4c0.9,0.2,2.4,0.4,2.9,0.5
	c0.4,0.1,2.1,0.5,3.4,0.8c0.3,0.1,0.5,0,0.5-0.2c0-0.1,0-0.2-0.2-0.3c-0.3-0.1-0.8-0.2-1.1-0.4c-0.7-0.3-0.7-0.9-0.6-1.8
	c0.1-1.2,0.6-3.4,1.2-6.1l0.1-0.4c0-0.2,0.1-0.2,0.2-0.2l2,0.5c0.2,0,0.3,0.1,0.4,0.3c0.2,0.5,0.9,2.6,1.5,4.4
	c0.8,2.5,1.5,4,2.3,4.9c0.5,0.5,1.1,0.8,2.4,1.1l2.2,0.5c0.3,0.1,0.5,0,0.5-0.2c0-0.1,0-0.2-0.2-0.3c-0.2,0-0.4-0.1-0.6-0.2
	c-0.3-0.2-1.3-0.6-2.2-2.5c-1-2.1-2.1-4.9-3.5-8.5c2.9-1.8,4-3.6,4.5-5.7c0.4-1.9-0.2-3.5-0.8-4.2c-1-1.3-2.6-1.8-4.1-2.2
	c-0.7-0.2-2.5-0.5-3.3-0.6c-0.5-0.1-2-0.5-3.2-0.8C100.5,210.8,100.4,210.8,100.3,210.8L100.3,210.8z M154.1,210.9
	c1.3,0.1,3,1,4.1,3.9c0.8,2.2,0.6,3.7,0.2,4.6c-0.3,0.5-0.5,0.7-1.4,1.1c-0.6,0.2-1.3,0.4-1.8,0.4c-0.2,0-0.3-0.1-0.4-0.4l-3-8.3
	c-0.1-0.2-0.1-0.3,0.1-0.5c0.2-0.2,0.6-0.3,1.2-0.5C153.2,210.9,153.6,210.9,154.1,210.9L154.1,210.9z M89.4,212.3
	c0.1,0,0,0.2,0,0.3l-0.6,7.4c0,0.1-0.1,0.2-0.2,0.1l-4.1-1.6c-0.1,0-0.1-0.1,0-0.2l4.7-5.8C89.3,212.4,89.4,212.2,89.4,212.3
	L89.4,212.3z M137.4,212.9c-0.2,0-0.3,0.4-0.5,1.2l-3.3,18.9c-0.3,1.5-0.6,2.5-1.6,2.9c-0.2,0.1-0.5,0.1-0.7,0.2
	c-0.2,0-0.3,0.1-0.3,0.3c0,0.2,0.2,0.3,0.5,0.2c1.2-0.2,2.5-0.5,2.8-0.5c0.7-0.1,1.8-0.2,2.5-0.3c0.3,0,0.4-0.1,0.4-0.3
	c0-0.2-0.1-0.2-0.4-0.2l-0.4,0.1c-0.7,0.1-1-0.2-1.1-0.7c-0.1-0.3,0-1,0.1-1.8l0.7-4.3c0-0.2,0.1-0.2,0.2-0.3l5.3-0.8
	c0.1,0,0.2,0,0.3,0.2l2.8,5.8c0.2,0.3,0,0.6-0.1,0.7c-0.2,0.1-0.3,0.1-0.3,0.3c0,0.2,0.3,0.2,0.7,0.1c1.9-0.2,3.7-0.5,4.5-0.6
	c0.9-0.1,1.1-0.2,1.1-0.4c0-0.2-0.2-0.2-0.3-0.2c-0.3,0-0.7,0.1-1,0c-0.5-0.1-1.3-0.4-2.6-2.8c-2.2-4.1-7.8-15.2-8.6-16.7
	C137.8,213.1,137.7,212.8,137.4,212.9L137.4,212.9z M105.2,213.3c0.3,0,0.7,0,1.3,0.2c1.4,0.3,3.4,1.9,2.5,6
	c-0.5,2.3-1.5,3.5-2.3,3.9c-0.5,0.3-0.8,0.3-1.8,0.1c-0.6-0.1-1.3-0.4-1.7-0.7c-0.1-0.1-0.2-0.2-0.1-0.6l1.9-8.6
	C105,213.5,105.1,213.4,105.2,213.3L105.2,213.3z M113.9,214c-0.4,0-0.6,0-0.6,0.2c0,0.2,0.1,0.3,0.3,0.3c0.2,0,0.6,0,0.9,0.1
	c0.9,0.3,1.3,0.6,1.8,2.3l5.5,17.9c0.4,1.4,0.5,1.8,0.9,1.8c0.3,0,0.5-0.4,1.2-2.1c0.6-1.4,1.8-4.5,3.5-8.7c1.4-3.5,2.1-5.1,3.2-7.7
	c0.7-1.8,1.1-2.3,1.4-2.6c0.4-0.3,1-0.3,1.2-0.3c0.2,0,0.4,0,0.4-0.2c0-0.2-0.2-0.3-0.5-0.3c-0.7,0-1.9,0-2.3,0
	c-0.3,0-1.3-0.1-2.5-0.2c-0.5,0-0.7,0-0.7,0.3c0,0.2,0.2,0.2,0.4,0.2c0.3,0,0.7,0.1,1,0.2c0.2,0.1,0.3,0.3,0.3,0.6
	c0,0.3-0.1,0.7-0.3,1.1c-0.6,1.9-4.1,11.1-5.2,14.3l-0.1,0l-3.7-13.3c-0.3-1.1-0.5-1.9-0.5-2.2c0-0.3,0.1-0.5,0.3-0.6
	c0.2-0.2,0.6-0.2,0.9-0.2c0.2,0,0.4,0,0.4-0.2c0-0.2-0.3-0.3-0.5-0.3c-1.2,0-2.4,0-3,0C116.5,214.2,115.1,214.1,113.9,214L113.9,214
	z M137.7,218.8c0.1,0,0.1,0.1,0.2,0.2l3.2,6.7c0,0.1,0,0.2-0.1,0.2l-4.4,0.7c-0.1,0-0.1-0.1-0.1-0.2l1.1-7.4
	C137.6,219,137.7,218.8,137.7,218.8L137.7,218.8z"/>
</svg>
